<?xml version="1.0" standalone="no"?>
<!DOCTYPE svg PUBLIC "-//W3C//DTD SVG 20010904//EN"
 "http://www.w3.org/TR/2001/REC-SVG-20010904/DTD/svg10.dtd">
<svg version="1.0" xmlns="http://www.w3.org/2000/svg"
 width="352.000000pt" height="815.000000pt" viewBox="0 0 352.000000 815.000000"
 preserveAspectRatio="xMidYMid meet">

<g transform="translate(0.000000,815.000000) scale(0.100000,-0.100000)"
fill="#000000" stroke="none">
<path d="M1585 8036 c-74 -23 -123 -55 -190 -122 -115 -117 -197 -324 -211
-539 -8 -111 7 -172 73 -295 58 -107 83 -140 125 -164 30 -17 29 -16 -9 18
-26 23 -56 65 -79 112 -20 40 -40 74 -44 74 -11 0 -30 73 -31 121 -1 40 -2 41
-8 14 -6 -27 -8 -24 -15 26 -8 62 6 167 30 224 8 20 10 34 4 30 -13 -8 -7 21
22 110 34 105 89 196 159 267 74 74 121 102 207 122 31 8 46 14 32 14 -14 1
-43 -5 -65 -12z"/>
<path d="M1767 8040 c17 -4 48 -17 69 -29 29 -17 34 -19 23 -5 -18 22 -71 44
-101 43 -18 -1 -15 -3 9 -9z"/>
<path d="M2029 7922 c62 -62 105 -141 141 -261 12 -39 20 -85 18 -102 -3 -16
3 -53 13 -82 22 -63 23 -50 5 68 -19 122 -32 168 -73 248 -33 66 -108 158
-144 178 -9 5 9 -17 40 -49z"/>
<path d="M1865 7758 c-43 -80 -65 -106 -128 -154 -69 -51 -87 -57 -46 -13 32
34 85 138 94 184 5 27 4 28 -7 11 -33 -49 -158 -181 -203 -215 -51 -39 -155
-101 -169 -101 -4 0 -4 5 0 11 3 6 -14 -9 -39 -33 -24 -23 -51 -56 -59 -73
-20 -40 -33 -109 -19 -100 6 3 11 -2 11 -12 0 -10 20 -42 45 -70 25 -28 52
-70 60 -93 33 -94 153 -209 257 -246 56 -20 114 -6 181 43 55 40 66 36 67 -27
1 -107 31 -146 160 -207 41 -20 102 -49 134 -64 33 -16 65 -29 73 -29 10 0 12
-27 9 -127 -4 -129 -1 -118 10 35 4 61 9 82 20 82 31 0 145 -54 183 -87 50
-42 96 -128 117 -219 9 -40 19 -158 24 -298 9 -222 23 -440 36 -556 3 -30 18
-107 34 -170 48 -193 53 -253 52 -690 -1 -223 3 -475 9 -560 9 -148 9 -158
-11 -203 -13 -29 -19 -56 -15 -69 5 -13 3 -18 -3 -14 -6 3 -14 -4 -17 -16 -12
-38 -53 -86 -110 -128 -55 -41 -71 -47 -77 -31 -1 5 -9 3 -16 -5 -27 -30 19
-27 81 5 86 43 133 89 147 142 6 24 18 70 28 102 14 48 16 77 10 170 -5 62
-10 333 -12 602 -3 524 -1 501 -61 738 -19 79 -30 165 -45 382 -11 154 -20
325 -20 380 0 237 -62 405 -174 474 -18 11 -86 39 -152 62 -65 22 -174 67
-241 100 -131 63 -146 78 -159 156 -6 37 -4 41 25 53 17 7 31 17 31 23 0 6 8
20 18 31 9 11 0 6 -21 -12 -47 -40 -57 -40 -57 1 0 25 9 42 35 67 19 19 44 58
55 87 11 30 25 59 30 66 43 51 80 109 80 126 0 11 5 32 10 46 9 24 12 25 27
14 14 -12 15 -11 8 11 -13 43 -35 84 -62 115 l-25 30 26 -49 c14 -27 26 -57
26 -66 0 -35 -50 -164 -71 -184 l-21 -21 6 29 c20 86 13 78 -17 -19 -18 -60
-38 -120 -45 -131 -19 -35 -140 -141 -186 -164 -86 -41 -164 -20 -271 73 -62
54 -110 131 -120 189 -5 28 -11 38 -23 36 -26 -5 -75 84 -76 138 -1 38 3 49
22 61 12 9 22 21 22 29 0 21 56 54 113 66 38 8 69 8 105 1 44 -8 50 -8 41 3
-6 8 -18 14 -25 14 -8 0 -14 5 -14 11 0 7 -10 9 -25 5 -40 -10 -29 10 33 57
32 25 86 75 120 111 34 37 62 64 62 61 0 -26 -64 -121 -113 -167 -32 -32 -56
-58 -52 -58 4 0 35 15 68 33 80 42 172 128 203 188 13 26 28 50 33 53 24 15
91 -96 111 -184 7 -30 19 -68 26 -85 l13 -30 -1 30 c-1 36 -41 155 -65 193
-28 45 -74 102 -82 102 -4 0 -21 -24 -36 -52z m860 -4134 c-23 -36 -30 -24 -8
14 10 18 20 27 21 21 2 -5 -4 -21 -13 -35z"/>
<path d="M1845 7490 c-24 -6 -16 -8 36 -8 36 0 76 -3 90 -7 18 -5 21 -4 13 4
-14 15 -101 22 -139 11z"/>
<path d="M2064 7444 c3 -9 6 -30 6 -47 0 -29 1 -30 14 -12 12 17 12 24 0 47
-15 30 -30 39 -20 12z"/>
<path d="M1470 7409 c0 -4 -9 -9 -20 -12 -11 -3 -20 -11 -20 -19 0 -7 9 -19
20 -26 16 -10 20 -10 20 2 0 8 7 16 14 19 10 4 13 1 9 -9 -8 -22 16 -44 49
-44 22 0 31 6 35 21 3 12 11 18 19 15 8 -3 14 -1 14 4 0 16 -43 50 -64 52 -56
4 -76 3 -76 -3z"/>
<path d="M1848 7404 c-16 -8 -28 -19 -28 -25 0 -6 4 -8 9 -5 5 3 12 -5 15 -18
11 -44 86 -40 86 5 0 25 20 24 27 -1 3 -11 7 -20 10 -20 3 0 16 9 30 20 23 18
24 20 6 20 -11 0 -32 9 -46 20 -30 24 -71 25 -109 4z"/>
<path d="M2222 7363 c-2 -72 -23 -175 -30 -153 -3 8 -11 -14 -18 -50 -11 -61
-59 -160 -76 -160 -5 0 -30 -22 -56 -50 -65 -67 -48 -63 28 6 99 92 166 262
158 404 l-4 65 -2 -62z"/>
<path d="M1350 7303 c0 -20 30 -116 35 -111 1 2 -2 29 -9 60 -12 58 -26 87
-26 51z"/>
<path d="M2112 7080 c0 -14 2 -19 5 -12 2 6 2 18 0 25 -3 6 -5 1 -5 -13z"/>
<path d="M1600 7060 c8 -5 22 -9 30 -9 10 0 8 3 -5 9 -27 12 -43 12 -25 0z"/>
<path d="M1808 7063 c7 -3 16 -2 19 1 4 3 -2 6 -13 5 -11 0 -14 -3 -6 -6z"/>
<path d="M1350 6993 c0 -18 71 -84 107 -99 17 -8 35 -18 38 -24 12 -19 -6 -90
-30 -118 -34 -41 -202 -125 -345 -173 -69 -23 -137 -48 -152 -55 -49 -25 -99
-76 -125 -128 -52 -103 -63 -166 -73 -409 -5 -126 -12 -232 -14 -235 -2 -4
-10 -88 -16 -187 -10 -144 -19 -206 -45 -310 -55 -214 -58 -252 -55 -685 1
-217 2 -406 3 -420 0 -14 -3 -95 -8 -180 -6 -132 -5 -163 9 -212 18 -60 30
-78 21 -30 -5 26 -5 26 5 4 5 -13 8 -36 5 -50 -3 -15 -3 -21 1 -15 3 8 18 -3
38 -30 38 -49 38 -61 -2 -26 -20 17 -18 14 6 -12 31 -34 112 -87 112 -74 0 3
10 -4 22 -15 33 -30 72 -23 76 14 6 46 -5 69 -51 117 -60 62 -87 109 -94 168
-5 43 -3 51 11 51 22 0 20 13 -5 41 -20 23 -20 23 -9 2 8 -18 7 -28 -5 -47
-32 -48 9 -141 98 -228 31 -30 40 -47 43 -78 2 -22 -1 -40 -6 -40 -6 0 -10 5
-10 10 0 6 -5 10 -11 10 -5 0 -7 -4 -4 -10 13 -21 -19 -9 -52 20 -19 17 -39
27 -45 24 -7 -4 -8 -2 -4 5 4 6 0 14 -9 17 -26 10 -70 84 -97 164 l-26 75 -1
545 c0 315 4 585 10 640 5 52 26 155 45 229 25 98 38 172 45 270 5 75 16 213
24 306 8 94 15 213 15 266 0 149 43 297 110 372 32 37 128 89 187 102 31 6 32
6 36 -37 l4 -43 1 49 c2 43 4 48 22 43 10 -3 20 -1 22 3 2 4 55 32 118 62 196
94 222 123 219 248 -1 30 -4 45 -6 33 -2 -13 -6 -23 -8 -23 -19 0 -91 49 -115
78 -17 20 -30 31 -30 25z"/>
<path d="M1698 6993 c6 -2 18 -2 25 0 6 3 1 5 -13 5 -14 0 -19 -2 -12 -5z"/>
<path d="M1172 6485 c0 -16 2 -22 5 -12 2 9 2 23 0 30 -3 6 -5 -1 -5 -18z"/>
<path d="M1677 6489 c7 -7 15 -10 18 -7 3 3 -2 9 -12 12 -14 6 -15 5 -6 -5z"/>
<path d="M1133 6385 c0 -27 2 -38 4 -22 2 15 2 37 0 50 -2 12 -4 0 -4 -28z"/>
<path d="M1182 6390 c0 -19 2 -27 5 -17 2 9 2 25 0 35 -3 9 -5 1 -5 -18z"/>
<path d="M1143 6290 c0 -25 2 -35 4 -22 2 12 2 32 0 45 -2 12 -4 2 -4 -23z"/>
<path d="M1193 6285 c0 -22 2 -30 4 -17 2 12 2 30 0 40 -3 9 -5 -1 -4 -23z"/>
<path d="M2273 6265 c0 -27 2 -38 4 -22 2 15 2 37 0 50 -2 12 -4 0 -4 -28z"/>
<path d="M2222 6255 c0 -16 2 -22 5 -12 2 9 2 23 0 30 -3 6 -5 -1 -5 -18z"/>
<path d="M1152 6205 c0 -16 2 -22 5 -12 2 9 2 23 0 30 -3 6 -5 -1 -5 -18z"/>
<path d="M1206 6211 c9 -9 83 -27 74 -18 -3 3 -23 10 -44 16 -22 5 -35 6 -30
2z"/>
<path d="M2155 6200 c-101 -27 -238 -76 -334 -121 -46 -21 -98 -39 -115 -40
-28 0 -29 -1 -10 -10 16 -8 39 -2 110 31 94 44 317 124 378 135 20 4 39 11 42
16 3 5 4 9 2 8 -2 0 -34 -8 -73 -19z"/>
<path d="M1291 6186 c2 -3 63 -25 135 -49 72 -25 155 -57 183 -72 29 -14 55
-25 57 -22 7 7 -147 74 -254 111 -96 33 -132 43 -121 32z"/>
<path d="M2281 6140 c92 -228 104 -328 55 -435 -14 -32 -26 -73 -26 -92 0 -37
-47 -327 -57 -353 -20 -53 9 -224 66 -392 53 -153 57 -174 34 -182 -28 -11
-253 -56 -279 -56 -13 0 -24 -4 -24 -8 0 -11 80 1 218 32 56 13 104 20 106 17
2 -3 7 -20 10 -38 6 -27 4 -32 -16 -36 -21 -4 -21 -4 3 -6 25 -1 28 -7 43 -68
9 -38 18 -90 20 -118 3 -27 10 -81 15 -120 13 -90 14 -402 1 -525 -11 -105
-76 -432 -115 -584 -115 -444 -140 -662 -110 -975 30 -305 13 -472 -90 -886
-88 -358 -100 -427 -86 -501 7 -34 10 -71 6 -83 -8 -27 57 -154 145 -282 62
-91 84 -139 63 -139 -3 0 -14 7 -24 16 -17 16 -18 15 -6 -15 17 -46 47 -42 47
7 0 31 -13 56 -66 133 -36 52 -83 128 -104 169 -35 70 -38 83 -45 190 -6 111
-5 121 34 290 22 96 54 227 71 290 76 291 98 553 70 825 -8 75 -11 184 -7 295
6 189 26 302 106 620 51 199 95 414 117 565 23 163 23 477 0 645 -19 136 -90
441 -131 560 -36 103 -65 227 -65 275 0 22 16 134 35 248 19 114 35 212 35
218 0 5 4 9 9 9 5 0 12 -24 15 -52 4 -29 18 -109 32 -178 14 -69 32 -199 39
-290 16 -179 35 -277 115 -585 30 -117 54 -233 57 -280 5 -76 4 -83 -28 -143
-31 -59 -33 -71 -40 -200 -4 -75 -10 -156 -14 -178 -8 -47 7 -84 33 -83 10 0
12 3 4 6 -25 10 -32 39 -21 99 6 33 12 109 14 169 3 112 9 138 56 215 17 29
19 46 15 95 -6 67 -63 324 -101 455 -42 145 -66 279 -75 430 -5 96 -18 191
-38 280 -49 221 -57 281 -41 326 9 25 13 80 11 155 -1 87 3 134 17 183 10 36
15 63 11 61 -4 -3 -16 -34 -25 -70 -10 -36 -21 -62 -25 -58 -3 4 -21 44 -40
88 -18 44 -37 85 -42 90 -5 6 1 -15 13 -45z"/>
<path d="M1116 6100 c-16 -39 -26 -73 -24 -76 3 -2 17 28 32 68 34 93 28 99
-8 8z"/>
<path d="M1041 6072 c11 -36 19 -85 20 -107 l0 -40 15 39 c12 33 12 40 0 50
-8 6 -19 35 -26 64 -7 28 -15 54 -20 57 -4 2 1 -26 11 -63z"/>
<path d="M1051 5851 c-1 -58 17 -152 39 -206 5 -11 18 -76 29 -145 12 -69 28
-168 37 -219 21 -119 12 -186 -51 -379 -55 -171 -108 -385 -130 -528 -22 -151
-30 -404 -16 -546 14 -141 72 -476 107 -613 114 -449 141 -704 109 -1013 -20
-194 -17 -368 10 -517 9 -49 47 -216 85 -370 90 -363 97 -408 81 -500 -6 -39
-9 -79 -6 -87 9 -22 -55 -143 -142 -271 -65 -96 -73 -113 -67 -140 6 -30 40
-65 76 -79 14 -6 18 -2 18 18 0 14 7 39 17 57 15 29 15 31 0 19 -9 -8 -22 -29
-29 -48 -7 -19 -16 -33 -22 -31 -16 5 -17 47 -1 76 20 40 6 48 -18 9 -16 -27
-20 -29 -28 -16 -10 18 1 38 84 155 86 122 127 213 134 295 12 157 5 203 -116
673 -72 284 -91 515 -61 740 16 115 16 333 1 485 -9 95 -56 324 -126 615 -42
175 -85 439 -94 582 -10 150 3 479 20 499 6 7 8 17 6 21 -6 9 18 158 32 208 5
17 12 43 15 58 6 26 10 28 39 23 32 -6 32 -6 5 5 -16 6 -28 16 -28 23 0 7 16
59 35 117 91 267 101 357 61 554 -14 66 -29 150 -34 188 l-9 67 21 -19 c12
-10 35 -26 51 -35 30 -17 30 -17 5 1 -77 56 -120 141 -130 256 l-7 82 -2 -64z"/>
<path d="M1066 5609 c-45 -192 -78 -387 -86 -499 -10 -152 -32 -272 -85 -465
-49 -176 -74 -295 -82 -387 -6 -74 -5 -79 25 -125 37 -58 56 -133 47 -191 -4
-27 0 -78 11 -132 19 -99 15 -120 -19 -120 -26 0 -39 22 -56 95 -6 26 -9 32
-10 16 -1 -35 20 -99 39 -116 14 -12 23 -13 45 -5 27 10 27 11 21 73 -4 34
-10 116 -14 182 -8 114 -10 124 -47 191 l-39 72 21 128 c12 71 37 186 57 256
72 262 105 440 106 566 0 44 16 150 41 273 22 111 38 204 35 206 -3 3 -7 -5
-10 -18z"/>
<path d="M2269 5603 l-24 -28 28 24 c25 23 32 31 24 31 -2 0 -14 -12 -28 -27z"/>
<path d="M1388 5251 c-86 -3 -160 -10 -165 -15 -4 -4 43 -5 107 0 63 4 284 8
490 8 274 0 333 2 220 7 -182 7 -432 7 -652 0z"/>
<path d="M1697 4894 c-16 -16 -7 -44 14 -44 15 0 20 5 17 22 -3 22 -19 33 -31
22z"/>
<path d="M1170 4654 c211 -53 521 -76 745 -55 42 4 -23 6 -160 7 -235 0 -358
11 -524 45 -106 22 -143 24 -61 3z"/>
<path d="M2003 4613 c9 -2 23 -2 30 0 6 3 -1 5 -18 5 -16 0 -22 -2 -12 -5z"/>
<path d="M1040 4354 c0 -3 30 -19 67 -37 144 -67 267 -153 478 -334 28 -24 58
-50 68 -58 15 -13 17 -35 17 -172 0 -87 -7 -237 -16 -333 -10 -105 -17 -313
-19 -520 -3 -297 -7 -365 -26 -493 -22 -138 -22 -154 -10 -270 25 -222 25
-393 2 -620 -22 -205 -29 -514 -16 -594 4 -21 16 -67 26 -103 18 -59 18 -70 5
-106 -12 -35 -12 -43 1 -65 l14 -24 -5 25 c-3 13 0 44 6 68 9 37 7 54 -13 120
-22 72 -24 92 -24 307 1 169 6 267 20 370 24 181 25 413 2 605 -17 143 -17
146 3 260 18 97 23 177 30 520 5 223 14 452 19 508 6 57 11 199 11 316 l1 213
-70 68 c-39 38 -71 63 -71 58 0 -6 25 -34 56 -62 30 -28 51 -51 45 -51 -6 0
-46 32 -88 71 -98 90 -205 170 -318 238 -88 54 -195 106 -195 95z"/>
<path d="M2310 4319 c-30 -16 -59 -35 -65 -40 -8 -9 119 56 134 68 18 14 -24
-3 -69 -28z"/>
<path d="M2124 4204 c-54 -37 -119 -84 -144 -105 -187 -156 -187 -156 -232
-154 -24 1 -32 0 -20 -2 l24 -4 -7 -127 c-4 -84 -1 -211 11 -372 9 -135 18
-387 19 -560 2 -271 6 -334 25 -450 25 -149 24 -206 -5 -440 -19 -148 -15
-277 11 -460 8 -58 18 -211 21 -340 4 -201 2 -246 -12 -310 -10 -41 -20 -129
-22 -195 -2 -66 -4 -133 -5 -148 0 -19 10 -39 30 -60 26 -28 30 -41 34 -100 3
-58 8 -72 31 -95 15 -15 38 -41 52 -59 33 -41 73 -50 117 -27 18 10 37 17 43
15 5 -1 2 6 -8 17 -9 10 -17 22 -17 26 0 11 -53 87 -57 82 -2 -2 8 -27 24 -55
l28 -52 -24 -20 c-29 -24 -57 -18 -88 19 -12 15 -37 41 -54 58 -30 30 -32 37
-40 134 -7 96 -19 148 -19 85 0 -27 0 -28 -20 -10 -23 20 -25 58 -10 148 6 38
5 67 -1 87 -8 22 -7 41 5 77 42 129 44 388 6 723 -24 207 -25 359 -6 507 28
207 28 222 6 358 -18 108 -23 196 -31 515 -4 212 -13 435 -18 495 -6 61 -10
201 -10 312 l-1 202 29 16 c16 8 56 38 88 66 79 70 239 190 296 223 41 25 67
46 54 46 -2 0 -49 -30 -103 -66z"/>
<path d="M1450 4146 c0 -2 8 -10 18 -17 15 -13 16 -12 3 4 -13 16 -21 21 -21
13z"/>
<path d="M1859 4033 l-24 -28 28 24 c25 23 32 31 24 31 -2 0 -14 -12 -28 -27z"/>
<path d="M2626 3879 c-9 -25 -11 -107 -3 -102 4 2 7 22 7 44 0 21 5 39 10 39
7 0 9 -26 6 -71 l-4 -71 -68 -71 c-64 -66 -53 -63 24 7 22 20 32 25 33 15 0
-7 7 0 14 16 19 41 19 164 0 189 -11 15 -15 16 -19 5z"/>
<path d="M2597 3727 c-10 -19 -23 -38 -30 -40 -7 -3 -5 -6 5 -6 18 -1 52 52
46 71 -2 6 -12 -5 -21 -25z"/>
<path d="M832 3615 c26 -27 50 -47 53 -44 3 3 -19 25 -47 49 l-53 43 47 -48z"/>
<path d="M2577 3602 c-26 -27 -44 -51 -41 -55 5 -5 94 87 94 98 0 9 -5 5 -53
-43z"/>
<path d="M2500 3554 c0 -8 5 -12 10 -9 6 3 10 10 10 16 0 5 -4 9 -10 9 -5 0
-10 -7 -10 -16z"/>
<path d="M1921 2365 c0 -5 6 -21 14 -35 8 -14 14 -20 14 -15 0 6 -6 21 -14 35
-8 14 -14 21 -14 15z"/>
<path d="M1476 2333 c-6 -14 -5 -15 5 -6 7 7 10 15 7 18 -3 3 -9 -2 -12 -12z"/>
<path d="M1632 573 c-2 -40 -8 -59 -24 -75 l-23 -23 -6 35 c-4 29 -6 24 -13
-35 -16 -160 -17 -165 -41 -183 -13 -10 -30 -35 -39 -55 -19 -46 -12 -48 10
-5 9 18 23 37 31 42 23 13 43 71 43 123 0 41 5 52 36 84 33 34 35 39 31 90
l-3 54 -2 -52z"/>
<path d="M1292 301 c-12 -17 -19 -37 -16 -45 4 -11 -2 -19 -17 -25 -24 -10
-24 -10 4 -10 15 -1 27 -5 27 -11 0 -5 5 -10 10 -10 6 0 5 8 -2 20 -11 16 -10
28 3 65 9 25 16 45 15 45 -1 0 -12 -13 -24 -29z"/>
<path d="M1371 281 c-12 -16 -21 -33 -21 -37 0 -4 -8 -16 -17 -27 -17 -19 -17
-19 3 -13 12 4 34 0 50 -9 16 -8 36 -15 44 -14 8 0 0 6 -18 12 -37 14 -55 36
-42 52 11 13 31 65 25 65 -2 0 -13 -13 -24 -29z"/>
<path d="M2117 281 c3 -12 9 -21 14 -21 14 0 11 16 -5 29 -12 10 -13 8 -9 -8z"/>
<path d="M2188 266 c4 -33 5 -34 33 -24 32 11 40 23 9 13 -15 -5 -22 0 -30 19
-13 35 -17 33 -12 -8z"/>
<path d="M2137 230 c3 -11 9 -17 14 -14 14 8 10 34 -5 34 -9 0 -12 -7 -9 -20z"/>
</g>
</svg>
