<?xml version="1.0" standalone="no"?>
<!DOCTYPE svg PUBLIC "-//W3C//DTD SVG 20010904//EN"
 "http://www.w3.org/TR/2001/REC-SVG-20010904/DTD/svg10.dtd">
<svg version="1.0" xmlns="http://www.w3.org/2000/svg"
 width="253.000000pt" height="747.000000pt" viewBox="0 0 253.000000 747.000000"
 preserveAspectRatio="xMidYMid meet">

<g transform="translate(0.000000,747.000000) scale(0.100000,-0.100000)"
fill="#000000" stroke="none">
<path d="M1220 7449 c-14 -6 -50 -15 -80 -21 -75 -14 -117 -37 -172 -96 -90
-96 -139 -230 -167 -454 -21 -169 -36 -358 -21 -258 5 30 16 118 25 195 22
196 33 248 73 348 39 99 114 192 183 227 47 24 168 50 235 50 96 0 235 -94
299 -204 50 -86 83 -203 104 -376 29 -232 29 -235 24 -140 -20 387 -114 600
-307 695 -77 38 -155 52 -196 34z"/>
<path d="M970 6605 c0 -5 5 -17 10 -25 5 -8 10 -10 10 -5 0 6 -5 17 -10 25 -5
8 -10 11 -10 5z"/>
<path d="M1722 6544 c-2 -39 -29 -130 -49 -163 l-15 -26 21 24 c27 30 54 120
48 163 l-4 33 -1 -31z"/>
<path d="M782 6529 c-4 -86 53 -195 128 -245 22 -15 39 -32 37 -37 -7 -22
-167 -104 -296 -152 -73 -28 -148 -63 -167 -78 -38 -32 -96 -145 -113 -222 -6
-27 -16 -124 -21 -215 -17 -308 -51 -643 -80 -790 -47 -236 -53 -324 -45 -635
4 -154 7 -387 6 -517 -1 -186 2 -240 12 -250 7 -6 12 -23 10 -37 -3 -23 -2
-24 6 -6 6 13 10 15 10 6 2 -43 45 -101 94 -131 29 -17 39 -20 22 -8 -68 51
-90 84 -116 169 l-26 84 1 575 1 575 37 180 c22 108 41 238 47 325 6 80 14
161 16 180 3 19 10 125 15 235 17 350 73 473 240 525 36 12 73 25 82 31 10 5
27 9 38 9 11 0 20 3 20 8 0 4 21 15 46 26 25 10 78 40 118 66 l73 47 34 -18
c53 -28 58 -22 8 9 -24 16 -64 51 -88 78 -44 48 -46 46 -9 -8 29 -42 7 -33
-45 17 -47 47 -81 125 -90 205 l-4 35 -1 -36z"/>
<path d="M1331 6353 c-10 -26 -10 -27 4 -9 8 11 15 23 15 28 0 15 -7 8 -19
-19z"/>
<path d="M1606 6336 c-27 -41 -85 -90 -95 -81 -2 3 3 13 11 22 8 10 18 25 23
33 4 8 -7 -3 -26 -24 -18 -21 -56 -49 -83 -63 -28 -13 -40 -21 -26 -17 14 3
40 15 58 25 l34 19 66 -44 c72 -48 175 -98 207 -102 10 -1 21 -7 23 -13 2 -6
11 -11 21 -11 36 0 139 -42 173 -70 74 -61 124 -213 133 -400 19 -411 47 -715
74 -822 40 -157 45 -227 43 -623 -2 -209 -3 -460 -2 -559 1 -225 -12 -275 -99
-370 l-36 -39 33 22 c18 13 38 31 44 41 7 10 17 16 23 14 14 -6 37 59 28 81
-4 13 -3 16 5 11 7 -4 12 -4 13 1 0 4 3 258 5 563 4 593 1 669 -43 850 -26
109 -43 292 -63 680 -16 304 -44 432 -113 522 -38 49 -70 67 -202 114 -103 37
-245 103 -280 130 -20 16 -20 16 9 37 17 12 44 36 61 52 17 17 22 22 10 13
-32 -27 -39 -21 -15 13 12 16 21 32 19 34 -2 2 -17 -16 -33 -39z m621 -3008
c-3 -8 -6 -5 -6 6 -1 11 2 17 5 13 3 -3 4 -12 1 -19z"/>
<path d="M1439 6293 c-13 -16 -12 -17 4 -4 16 13 21 21 13 21 -2 0 -10 -8 -17
-17z"/>
<path d="M1341 6244 c0 -11 3 -14 6 -6 3 7 2 16 -1 19 -3 4 -6 -2 -5 -13z"/>
<path d="M1380 6229 c-14 -11 -35 -24 -47 -29 -13 -5 -23 -14 -23 -20 0 -17
14 -11 60 30 47 41 54 55 10 19z"/>
<path d="M1173 6228 c-25 -33 -26 -40 -4 -33 14 4 31 1 46 -9 13 -9 28 -16 32
-16 14 1 -41 40 -56 40 -7 0 -11 6 -7 15 7 18 2 19 -11 3z"/>
<path d="M1074 6220 c1 -8 7 -24 14 -35 8 -15 11 -16 12 -4 0 8 -6 24 -14 35
-10 13 -14 14 -12 4z"/>
<path d="M1125 6180 c-3 -5 -1 -10 4 -10 6 0 11 5 11 10 0 6 -2 10 -4 10 -3 0
-8 -4 -11 -10z"/>
<path d="M732 6050 c0 -19 2 -27 5 -17 2 9 2 25 0 35 -3 9 -5 1 -5 -18z"/>
<path d="M1803 6025 c0 -27 2 -38 4 -22 2 15 2 37 0 50 -2 12 -4 0 -4 -28z"/>
<path d="M742 5975 c0 -16 2 -22 5 -12 2 9 2 23 0 30 -3 6 -5 -1 -5 -18z"/>
<path d="M692 5965 c0 -16 2 -22 5 -12 2 9 2 23 0 30 -3 6 -5 -1 -5 -18z"/>
<path d="M1793 5925 c0 -22 2 -30 4 -17 2 12 2 30 0 40 -3 9 -5 -1 -4 -23z"/>
<path d="M1732 5920 c0 -14 2 -19 5 -12 2 6 2 18 0 25 -3 6 -5 1 -5 -13z"/>
<path d="M702 5890 c0 -19 2 -27 5 -17 2 9 2 25 0 35 -3 9 -5 1 -5 -18z"/>
<path d="M1722 5860 c0 -14 2 -19 5 -12 2 6 2 18 0 25 -3 6 -5 1 -5 -13z"/>
<path d="M1782 5850 c0 -19 2 -27 5 -17 2 9 2 25 0 35 -3 9 -5 1 -5 -18z"/>
<path d="M712 5825 c0 -16 2 -22 5 -12 2 9 2 23 0 30 -3 6 -5 -1 -5 -18z"/>
<path d="M1712 5805 c0 -16 2 -22 5 -12 2 9 2 23 0 30 -3 6 -5 -1 -5 -18z"/>
<path d="M1772 5785 c0 -16 2 -22 5 -12 2 9 2 23 0 30 -3 6 -5 -1 -5 -18z"/>
<path d="M722 5765 c0 -16 2 -22 5 -12 2 9 2 23 0 30 -3 6 -5 -1 -5 -18z"/>
<path d="M781 5774 c0 -11 3 -14 6 -6 3 7 2 16 -1 19 -3 4 -6 -2 -5 -13z"/>
<path d="M982 5750 c0 -14 2 -19 5 -12 2 6 2 18 0 25 -3 6 -5 1 -5 -13z"/>
<path d="M1696 5729 c-4 -23 -5 -44 -2 -46 2 -2 7 14 11 37 4 23 5 43 2 46 -2
3 -7 -14 -11 -37z"/>
<path d="M792 5730 c0 -14 2 -19 5 -12 2 6 2 18 0 25 -3 6 -5 1 -5 -13z"/>
<path d="M732 5710 c0 -14 2 -19 5 -12 2 6 2 18 0 25 -3 6 -5 1 -5 -13z"/>
<path d="M802 5680 c0 -14 2 -19 5 -12 2 6 2 18 0 25 -3 6 -5 1 -5 -13z"/>
<path d="M982 5640 c0 -14 2 -19 5 -12 2 6 2 18 0 25 -3 6 -5 1 -5 -13z"/>
<path d="M812 5635 c0 -11 4 -31 8 -45 6 -20 8 -21 8 -5 0 11 -4 31 -8 45 -6
20 -8 21 -8 5z"/>
<path d="M1731 5604 c0 -11 3 -14 6 -6 3 7 2 16 -1 19 -3 4 -6 -2 -5 -13z"/>
<path d="M546 5575 c4 -11 21 -63 39 -115 60 -177 61 -198 20 -415 -43 -220
-51 -275 -65 -445 -5 -69 -21 -172 -34 -230 -132 -564 -131 -553 -72 -679 35
-74 39 -92 42 -179 2 -53 8 -113 12 -132 6 -22 7 11 4 90 -4 111 -8 133 -34
195 -56 131 -58 137 -48 208 11 77 39 203 81 369 49 196 59 255 69 412 6 88
23 209 40 291 15 77 32 166 35 198 4 32 10 56 12 53 8 -8 21 -72 54 -261 38
-220 36 -269 -20 -433 -93 -273 -136 -476 -151 -712 -22 -333 12 -611 144
-1170 54 -228 67 -460 41 -725 -21 -217 -16 -446 14 -605 11 -58 45 -211 76
-340 62 -260 71 -335 60 -494 -7 -101 -9 -110 -38 -143 -17 -19 -51 -45 -76
-57 -35 -16 -47 -27 -49 -47 -4 -38 48 -69 115 -69 37 0 55 -5 68 -20 54 -60
221 -54 255 9 13 25 13 159 0 197 -8 22 -7 40 3 69 12 35 12 45 -7 99 -18 55
-20 85 -20 301 0 177 5 272 18 360 26 181 31 403 12 574 -21 186 -20 233 5
366 18 95 22 154 24 425 1 173 8 360 15 415 6 55 15 201 18 325 l7 225 28 3
27 3 0 -178 c0 -98 7 -263 15 -368 8 -104 15 -302 15 -440 0 -198 4 -277 20
-379 24 -152 25 -239 5 -401 -20 -165 -18 -300 6 -505 26 -230 36 -572 19
-666 -7 -38 -15 -132 -18 -209 -7 -221 -7 -217 22 -241 51 -44 156 -42 223 3
21 15 52 29 68 33 28 6 28 7 8 12 -16 4 -33 -2 -59 -22 -69 -55 -193 -60 -239
-10 -15 17 -17 30 -10 87 4 38 7 86 7 108 0 31 1 35 8 20 7 -15 9 -10 9 23 1
24 -3 41 -8 38 -17 -11 -21 42 -6 96 32 124 28 379 -11 728 -21 185 -20 344 1
548 19 173 19 173 -3 335 -17 124 -23 231 -26 452 -3 160 -12 369 -20 465 -16
184 -21 427 -8 446 5 9 25 8 77 -1 l70 -14 87 34 c101 40 163 78 304 186 56
43 105 75 108 72 13 -14 5 -278 -14 -423 -29 -222 -45 -313 -107 -595 -73
-335 -71 -325 -83 -496 -8 -125 -7 -175 7 -292 10 -87 17 -218 17 -337 0 -221
-13 -303 -103 -667 -62 -249 -78 -366 -63 -451 7 -40 8 -72 2 -87 -8 -20 -5
-29 13 -48 12 -13 34 -40 49 -59 15 -20 40 -39 55 -43 15 -3 39 -16 52 -28
l24 -22 -14 22 c-7 12 -30 28 -50 36 -50 20 -108 99 -109 148 0 20 -4 60 -10
89 -13 69 7 203 65 438 81 330 97 429 103 625 3 129 -1 225 -13 345 -30 283
-15 439 85 877 79 348 111 599 110 879 0 287 -32 468 -145 826 -64 201 -65
226 -21 477 39 216 44 239 51 232 15 -15 84 -422 90 -529 7 -132 40 -308 100
-545 44 -171 65 -300 55 -334 -4 -14 -23 -57 -41 -96 -27 -57 -34 -86 -40
-165 -4 -52 -10 -122 -14 -155 -6 -49 -4 -63 8 -74 27 -21 55 3 71 62 25 90
28 115 15 123 -8 5 -10 2 -6 -8 8 -22 -16 -121 -37 -153 -15 -22 -20 -24 -33
-14 -12 10 -14 24 -8 64 3 27 10 95 15 150 7 88 12 110 45 175 31 61 38 86 37
130 0 69 -22 185 -67 354 -49 189 -74 329 -85 486 -6 82 -27 224 -50 345 -22
113 -40 221 -40 241 0 35 32 161 69 267 11 31 18 57 16 57 -8 0 -36 -74 -62
-165 -14 -49 -30 -99 -36 -110 -6 -11 -10 -24 -9 -28 3 -10 -37 -223 -46 -247
-3 -8 -4 -20 -3 -26 0 -6 -8 -55 -19 -109 -32 -157 -28 -206 35 -416 30 -100
52 -185 50 -189 -2 -4 -28 -1 -57 6 -29 8 -62 14 -73 13 -26 -1 -13 -5 56 -19
31 -6 64 -16 73 -23 30 -22 83 -277 87 -420 2 -79 10 -69 -123 -169 -230 -174
-339 -214 -487 -178 -32 7 -75 10 -109 6 -157 -18 -180 -18 -233 -1 -48 16
-217 124 -331 211 -27 20 -48 34 -48 31 0 -7 165 -131 245 -184 33 -22 80 -47
105 -57 25 -10 60 -25 78 -33 27 -13 40 -14 71 -4 21 6 52 11 70 11 l31 0 0
-122 c0 -68 -7 -195 -16 -283 -8 -88 -19 -324 -24 -525 -7 -308 -12 -384 -30
-485 -21 -117 -22 -122 -6 -270 22 -203 20 -407 -5 -622 -14 -122 -20 -243
-21 -383 0 -183 2 -213 21 -275 24 -76 21 -131 -6 -121 -12 5 -14 1 -8 -21 4
-16 9 -39 11 -53 2 -14 8 -53 15 -88 12 -72 -1 -105 -49 -123 -48 -19 -135 -6
-184 26 -32 21 -53 28 -81 26 -40 -3 -107 30 -107 53 0 18 21 36 42 36 10 0
46 28 79 61 55 56 60 64 50 86 -8 17 -7 44 1 97 16 102 2 198 -67 481 -102
419 -119 580 -91 868 29 302 19 545 -30 762 -58 253 -134 647 -144 744 -5 57
-10 177 -10 268 0 151 1 165 17 159 16 -6 16 -6 0 12 -18 19 -16 94 4 217 9
57 53 232 66 265 3 8 7 27 9 42 2 15 25 91 50 170 56 173 64 251 39 394 -9 55
-18 110 -20 124 -2 14 -15 80 -29 147 -15 67 -25 126 -24 130 0 5 -1 15 -5 23
-3 8 -17 56 -30 105 -14 50 -37 115 -51 145 -15 30 -23 46 -20 35z"/>
<path d="M1722 5560 c0 -14 2 -19 5 -12 2 6 2 18 0 25 -3 6 -5 1 -5 -13z"/>
<path d="M831 5544 c0 -11 3 -14 6 -6 3 7 2 16 -1 19 -3 4 -6 -2 -5 -13z"/>
<path d="M1706 5494 c-4 -20 -5 -38 -3 -40 3 -3 8 11 11 32 4 20 5 38 3 40 -3
3 -8 -11 -11 -32z"/>
<path d="M781 5504 c0 -11 3 -14 6 -6 3 7 2 16 -1 19 -3 4 -6 -2 -5 -13z"/>
<path d="M841 5504 c0 -11 3 -14 6 -6 3 7 2 16 -1 19 -3 4 -6 -2 -5 -13z"/>
<path d="M1641 5494 c0 -11 3 -14 6 -6 3 7 2 16 -1 19 -3 4 -6 -2 -5 -13z"/>
<path d="M791 5470 c0 -8 4 -35 10 -59 12 -52 1 -68 -61 -96 -22 -10 -38 -20
-36 -22 7 -7 80 33 99 55 16 18 17 24 3 78 -7 33 -14 52 -15 44z"/>
<path d="M1631 5454 c0 -11 3 -14 6 -6 3 7 2 16 -1 19 -3 4 -6 -2 -5 -13z"/>
<path d="M1691 5424 c0 -11 3 -14 6 -6 3 7 2 16 -1 19 -3 4 -6 -2 -5 -13z"/>
<path d="M1621 5423 c-1 -6 -4 -20 -7 -30 -5 -17 -5 -17 6 0 6 10 9 23 6 30
-3 9 -5 9 -5 0z"/>
<path d="M871 5409 c-1 -8 6 -24 15 -35 15 -19 15 -19 6 1 -5 11 -12 27 -15
35 -5 13 -6 13 -6 -1z"/>
<path d="M1681 5379 c-1 -30 17 -48 76 -78 66 -33 65 -24 -2 12 -48 25 -61 38
-66 62 -6 28 -7 29 -8 4z"/>
<path d="M949 5334 c18 -8 47 -17 65 -20 17 -2 4 4 -29 16 -70 23 -84 25 -36
4z"/>
<path d="M1498 5323 c7 -3 16 -2 19 1 4 3 -2 6 -13 5 -11 0 -14 -3 -6 -6z"/>
<path d="M1458 5313 c7 -3 16 -2 19 1 4 3 -2 6 -13 5 -11 0 -14 -3 -6 -6z"/>
<path d="M1063 5303 c9 -2 23 -2 30 0 6 3 -1 5 -18 5 -16 0 -22 -2 -12 -5z"/>
<path d="M1393 5303 c9 -2 25 -2 35 0 9 3 1 5 -18 5 -19 0 -27 -2 -17 -5z"/>
<path d="M1188 5293 c28 -2 76 -2 105 0 28 2 5 3 -53 3 -58 0 -81 -1 -52 -3z"/>
<path d="M1178 5043 c39 -2 105 -2 145 0 39 1 7 3 -73 3 -80 0 -112 -2 -72 -3z"/>
<path d="M973 5033 c26 -2 67 -2 90 0 23 2 2 3 -48 3 -49 0 -68 -1 -42 -3z"/>
<path d="M1438 5033 c23 -2 61 -2 85 0 23 2 4 4 -43 4 -47 0 -66 -2 -42 -4z"/>
<path d="M833 5023 c15 -2 39 -2 55 0 15 2 2 4 -28 4 -30 0 -43 -2 -27 -4z"/>
<path d="M1598 5023 c12 -2 32 -2 45 0 12 2 2 4 -23 4 -25 0 -35 -2 -22 -4z"/>
<path d="M748 5013 c12 -2 30 -2 40 0 9 3 -1 5 -23 4 -22 0 -30 -2 -17 -4z"/>
<path d="M1708 5013 c6 -2 18 -2 25 0 6 3 1 5 -13 5 -14 0 -19 -2 -12 -5z"/>
<path d="M875 4319 c-117 -12 -125 -18 -15 -11 52 4 244 7 425 7 182 0 301 3
265 6 -94 10 -581 8 -675 -2z"/>
<path d="M1638 4303 c12 -2 30 -2 40 0 9 3 -1 5 -23 4 -22 0 -30 -2 -17 -4z"/>
<path d="M723 4293 c9 -2 23 -2 30 0 6 3 -1 5 -18 5 -16 0 -22 -2 -12 -5z"/>
<path d="M2092 3595 c0 -16 2 -22 5 -12 2 9 2 23 0 30 -3 6 -5 -1 -5 -18z"/>
<path d="M365 3510 c-4 -16 -11 -32 -16 -35 -5 -4 -9 -11 -9 -16 0 -6 5 -7 10
-4 6 3 10 -4 10 -18 0 -28 28 -115 40 -122 5 -3 0 19 -11 50 -21 60 -25 105
-9 105 6 0 15 -10 20 -22 9 -22 9 -22 9 3 1 18 -5 28 -18 32 -14 3 -17 11 -14
31 7 36 -4 33 -12 -4z"/>
<path d="M2108 3489 c-3 -8 0 -23 8 -34 8 -10 14 -15 15 -9 0 5 4 0 9 -11 7
-16 9 -17 9 -3 1 9 -4 20 -10 23 -6 4 -14 16 -18 28 -6 15 -9 17 -13 6z"/>
<path d="M416 3390 c12 -72 67 -126 82 -80 5 13 3 13 -12 1 -22 -19 -33 -7
-57 61 -14 38 -17 43 -13 18z"/>
<path d="M341 3395 c-1 -40 46 -120 92 -158 27 -22 47 -47 47 -58 0 -23 -3
-23 -38 -3 l-27 16 28 -24 c27 -24 34 -38 19 -38 -23 0 -159 103 -174 132 -20
36 -25 23 -7 -16 13 -27 156 -127 186 -130 11 -1 20 10 26 31 10 34 1 53 -63
133 -17 20 -19 21 -14 5 7 -20 7 -20 -14 0 -12 11 -30 45 -41 75 -11 30 -20
46 -20 35z"/>
<path d="M2132 3350 c0 -14 2 -19 5 -12 2 6 2 18 0 25 -3 6 -5 1 -5 -13z"/>
<path d="M2075 3300 c-10 -22 -33 -57 -51 -77 -54 -60 -41 -143 18 -112 45 23
147 104 157 125 5 12 -11 2 -38 -25 -58 -56 -131 -99 -131 -77 0 9 13 22 29
31 17 8 33 21 37 27 5 8 1 7 -10 -2 -10 -8 -30 -14 -44 -15 -19 0 -26 -5 -24
-17 1 -9 -2 -19 -8 -23 -6 -4 -10 4 -10 19 0 17 16 38 53 70 28 26 44 43 35
40 -22 -8 -22 -1 -2 37 8 17 14 33 11 35 -2 2 -12 -14 -22 -36z"/>
<path d="M1093 470 c0 -36 2 -50 4 -32 2 17 2 47 0 65 -2 17 -4 3 -4 -33z"/>
<path d="M1531 384 c0 -11 3 -14 6 -6 3 7 2 16 -1 19 -3 4 -6 -2 -5 -13z"/>
<path d="M1725 159 c-16 -10 -25 -19 -19 -19 16 0 64 24 64 33 0 11 -12 7 -45
-14z"/>
</g>
</svg>
