<?xml version="1.0" standalone="no"?>
<!DOCTYPE svg PUBLIC "-//W3C//DTD SVG 20010904//EN"
 "http://www.w3.org/TR/2001/REC-SVG-20010904/DTD/svg10.dtd">
<svg version="1.0" xmlns="http://www.w3.org/2000/svg"
 width="736.000000pt" height="684.000000pt" viewBox="0 0 736.000000 684.000000"
 preserveAspectRatio="xMidYMid meet">

<g transform="translate(0.000000,684.000000) scale(0.100000,-0.100000)"
fill="#000000" stroke="none">
<path d="M5343 6711 c-114 -28 -179 -83 -237 -199 -53 -105 -100 -384 -94
-562 3 -95 6 -113 33 -166 21 -39 46 -70 77 -93 46 -34 46 -35 25 -51 -49 -37
-125 -74 -235 -116 -150 -57 -183 -79 -217 -147 -42 -86 -55 -150 -65 -322
-20 -326 -49 -598 -77 -720 l-27 -120 -2 -539 c-1 -297 1 -548 4 -558 2 -10 9
-15 14 -12 6 4 8 -1 4 -13 -3 -10 2 -44 12 -74 17 -48 26 -59 88 -101 77 -53
104 -56 115 -16 6 22 1 35 -23 65 -17 21 -34 37 -38 36 -13 -4 -38 30 -59 82
-11 28 -20 42 -20 32 -1 -32 47 -111 88 -145 23 -18 41 -40 41 -49 0 -20 -16
-13 -89 36 -53 36 -62 48 -90 116 l-32 76 -2 522 -2 522 32 147 c33 150 54
350 73 683 13 237 51 364 124 420 25 19 132 65 152 65 1 0 5 -10 7 -22 4 -20
4 -19 6 5 0 15 6 28 11 28 20 3 26 5 106 46 44 23 94 53 111 67 l30 25 56 -34
c31 -19 57 -31 57 -26 0 10 -79 121 -86 121 -3 0 11 -22 31 -50 42 -57 36 -63
-21 -22 -52 38 -107 100 -123 140 -8 18 -16 31 -18 28 -6 -6 24 -64 54 -105
23 -29 23 -32 5 -22 -36 19 -89 90 -105 142 -45 139 14 576 96 709 34 56 87
110 128 130 37 19 164 50 206 50 50 0 135 -43 193 -97 103 -95 140 -193 174
-458 20 -150 20 -257 1 -322 -16 -53 -68 -133 -87 -133 -7 0 -6 6 4 18 8 9 18
24 23 32 4 8 -6 -1 -23 -20 -17 -19 -31 -38 -32 -42 0 -4 -14 -15 -31 -24
l-31 -16 24 34 c45 60 42 64 -7 9 -42 -45 -95 -81 -121 -81 -3 0 9 19 28 43
19 23 43 56 52 72 17 30 17 30 -1 5 -37 -52 -109 -123 -132 -131 -13 -5 -21
-12 -18 -16 4 -3 18 2 31 11 14 8 32 13 40 10 9 -3 36 5 60 19 l45 25 39 -29
c22 -16 71 -44 110 -64 39 -19 73 -42 75 -52 4 -15 5 -15 6 -2 1 14 14 12 92
-16 101 -37 130 -59 164 -125 43 -85 56 -149 65 -330 17 -315 41 -573 66 -687
36 -168 45 -312 38 -616 -3 -150 -5 -344 -5 -432 1 -149 0 -164 -24 -225 -33
-85 -114 -167 -156 -158 -7 2 -16 -8 -20 -22 l-7 -25 -1 27 c-1 20 10 36 45
64 50 41 69 71 77 124 6 33 5 32 -7 -6 -16 -47 -44 -94 -57 -94 -4 0 0 15 11
33 11 18 26 60 34 92 8 33 15 51 15 41 1 -11 4 -16 7 -13 4 3 -1 22 -10 40 -9
19 -20 59 -26 88 -9 52 -9 52 -2 -11 15 -145 4 -197 -62 -283 -28 -37 -36 -56
-34 -80 5 -48 33 -45 111 13 72 54 100 97 101 157 0 17 3 30 7 27 15 -9 17 63
15 576 l-2 525 -28 120 c-29 126 -47 308 -66 650 -13 231 -30 327 -73 408 -39
75 -71 98 -182 137 -96 34 -237 99 -270 126 -20 16 -20 16 -1 27 47 28 100 85
124 131 35 69 40 182 17 369 -31 254 -71 365 -164 457 -103 102 -196 127 -338
91z m-732 -3727 c13 -11 48 -35 77 -53 28 -18 52 -37 52 -42 0 -14 -6 -12 -81
36 -69 45 -86 67 -103 135 -3 14 2 7 13 -15 10 -22 29 -49 42 -61z m1679 49
c-7 -21 -19 -47 -26 -57 -16 -23 -135 -108 -142 -101 -8 8 18 33 63 59 53 32
91 76 100 116 4 18 9 29 12 26 3 -2 -1 -22 -7 -43z"/>
<path d="M1799 6705 c-84 -27 -140 -74 -179 -150 -32 -63 -35 -75 -38 -176 -3
-82 -8 -109 -17 -109 -36 0 -29 -73 16 -161 28 -57 47 -73 73 -63 9 4 16 -6
20 -31 4 -20 10 -44 13 -53 3 -9 3 -14 -1 -10 -4 3 -14 24 -21 45 -8 22 -14
29 -14 18 0 -11 8 -40 19 -64 23 -50 27 -161 7 -200 -15 -31 -108 -85 -257
-151 -63 -28 -137 -61 -163 -73 -121 -53 -176 -180 -182 -422 -3 -77 -9 -165
-15 -195 -7 -30 -15 -143 -20 -250 -6 -137 -15 -222 -30 -285 -30 -129 -35
-293 -16 -560 8 -126 16 -323 16 -436 0 -187 3 -214 24 -288 13 -46 35 -94 48
-108 34 -38 158 -95 175 -82 25 21 15 64 -26 110 -48 56 -71 99 -72 141 -1 19
-3 25 -6 15 -8 -32 7 -85 33 -117 30 -35 24 -38 -16 -10 -19 14 -30 32 -33 53
l-4 32 -1 -32 c-2 -26 5 -37 33 -59 36 -27 61 -61 52 -70 -8 -8 -80 25 -104
48 -12 11 -37 57 -56 102 l-35 81 0 215 c0 118 -6 283 -13 365 -7 83 -12 224
-13 315 0 142 3 182 26 290 20 95 28 164 32 290 3 91 12 206 20 255 9 50 16
137 16 195 1 231 60 349 208 410 134 56 342 163 372 193 30 29 30 31 30 137 0
66 -6 126 -15 156 -18 59 -20 88 -3 59 31 -55 81 -125 90 -125 5 0 3 7 -6 15
-27 27 -104 159 -138 235 -30 68 -33 84 -33 175 0 107 9 141 56 211 36 53 94
91 171 110 79 20 149 12 228 -27 109 -55 160 -148 160 -293 0 -117 -35 -212
-124 -341 -53 -76 -58 -85 -52 -85 3 0 26 30 51 67 34 52 45 62 45 45 0 -13 4
-20 10 -17 14 9 12 -35 -5 -70 l-13 -30 -2 30 c-4 61 -18 -16 -19 -103 -1
-107 14 -143 76 -182 57 -37 293 -152 344 -169 51 -16 110 -70 142 -128 39
-72 57 -162 57 -288 0 -60 7 -153 15 -205 9 -52 18 -165 21 -250 4 -104 14
-194 30 -273 32 -158 39 -309 25 -567 -7 -118 -12 -313 -12 -434 0 -170 -3
-226 -14 -253 -17 -40 -19 -55 -5 -33 9 13 10 13 11 0 0 -8 5 -1 11 15 9 30
22 530 22 930 1 202 -1 231 -27 353 -20 98 -27 161 -27 245 0 61 -7 157 -16
212 -8 55 -17 168 -19 250 -3 167 -20 242 -74 326 -37 59 -78 90 -166 124 -90
36 -235 108 -303 152 -66 41 -85 82 -79 162 4 61 42 159 75 194 32 34 72 128
72 170 0 31 -4 40 -21 44 -20 6 -21 11 -16 63 17 160 -53 299 -180 357 -68 31
-178 39 -244 18z m-174 -521 c37 -80 37 -107 2 -77 l-22 18 19 -22 c10 -13 23
-20 27 -17 5 3 9 -1 9 -9 0 -8 -7 -18 -15 -21 -31 -11 -107 147 -92 189 13 33
37 13 72 -61z m623 39 c3 -29 -50 -157 -70 -169 -5 -3 -17 1 -27 10 -17 16
-16 20 16 86 18 39 33 76 33 83 0 8 4 7 10 -3 8 -12 10 -10 10 8 0 35 24 22
28 -15z m-1098 -3245 c30 -15 60 -31 65 -35 15 -11 35 -14 35 -5 0 4 -7 16
-15 26 -22 30 -17 45 5 17 11 -13 20 -31 20 -42 0 -20 -20 -37 -21 -17 0 9 -2
9 -5 1 -4 -8 -19 -5 -52 9 -89 39 -119 72 -136 153 -4 21 2 13 21 -25 24 -46
36 -59 83 -82z"/>
<path d="M1581 6184 c0 -11 3 -14 6 -6 3 7 2 16 -1 19 -3 4 -6 -2 -5 -13z"/>
<path d="M5721 6374 c0 -11 3 -14 6 -6 3 7 2 16 -1 19 -3 4 -6 -2 -5 -13z"/>
<path d="M5721 6134 c0 -11 3 -14 6 -6 3 7 2 16 -1 19 -3 4 -6 -2 -5 -13z"/>
<path d="M5160 6025 c0 -13 113 -246 117 -241 2 2 -24 59 -57 127 -33 68 -60
120 -60 114z"/>
<path d="M5361 6014 c0 -11 3 -14 6 -6 3 7 2 16 -1 19 -3 4 -6 -2 -5 -13z"/>
<path d="M5111 5914 c0 -11 3 -14 6 -6 3 7 2 16 -1 19 -3 4 -6 -2 -5 -13z"/>
<path d="M5120 5885 c0 -5 5 -17 10 -25 5 -8 10 -10 10 -5 0 6 -5 17 -10 25
-5 8 -10 11 -10 5z"/>
<path d="M5801 5843 c-1 -6 -4 -20 -7 -30 -5 -17 -5 -17 6 0 6 10 9 23 6 30
-3 9 -5 9 -5 0z"/>
<path d="M5656 5795 c-9 -26 -7 -32 5 -12 6 10 9 21 6 23 -2 3 -7 -2 -11 -11z"/>
<path d="M5485 5722 c-31 -47 -100 -110 -111 -100 -3 4 2 18 11 32 28 42 10
30 -21 -15 -24 -35 -29 -38 -35 -22 -6 14 -8 13 -8 -9 -1 -27 -1 -27 28 -11
27 16 30 16 63 -4 23 -14 40 -18 49 -12 11 7 11 9 -3 9 -9 0 -28 5 -42 12
l-26 11 41 35 c37 32 95 109 87 117 -2 2 -17 -17 -33 -43z"/>
<path d="M5521 5684 c0 -11 3 -14 6 -6 3 7 2 16 -1 19 -3 4 -6 -2 -5 -13z"/>
<path d="M5311 5674 c0 -11 3 -14 6 -6 3 7 2 16 -1 19 -3 4 -6 -2 -5 -13z"/>
<path d="M1901 5604 c0 -11 3 -14 6 -6 3 7 2 16 -1 19 -3 4 -6 -2 -5 -13z"/>
<path d="M4972 5480 c0 -19 2 -27 5 -17 2 9 2 25 0 35 -3 9 -5 1 -5 -18z"/>
<path d="M5923 5455 c0 -27 2 -38 4 -22 2 15 2 37 0 50 -2 12 -4 0 -4 -28z"/>
<path d="M5873 5445 c0 -22 2 -30 4 -17 2 12 2 30 0 40 -3 9 -5 -1 -4 -23z"/>
<path d="M4933 5420 c0 -25 2 -35 4 -22 2 12 2 32 0 45 -2 12 -4 2 -4 -23z"/>
<path d="M4982 5410 c0 -19 2 -27 5 -17 2 9 2 25 0 35 -3 9 -5 1 -5 -18z"/>
<path d="M5856 5349 c-4 -28 -5 -53 -3 -56 3 -2 8 19 12 47 4 28 5 53 2 56 -2
3 -7 -19 -11 -47z"/>
<path d="M5892 5263 c-12 -76 -25 -151 -29 -168 -3 -16 -3 -28 0 -25 9 9 59
287 55 311 -2 11 -13 -42 -26 -118z"/>
<path d="M4942 5345 c0 -16 4 -43 8 -60 11 -42 11 -1 1 50 -7 34 -9 35 -9 10z"/>
<path d="M4992 5345 c0 -16 2 -22 5 -12 2 9 2 23 0 30 -3 6 -5 -1 -5 -18z"/>
<path d="M5671 5324 c0 -11 3 -14 6 -6 3 7 2 16 -1 19 -3 4 -6 -2 -5 -13z"/>
<path d="M2152 5285 c0 -16 2 -22 5 -12 2 9 2 23 0 30 -3 6 -5 -1 -5 -18z"/>
<path d="M5002 5290 c0 -14 2 -19 5 -12 2 6 2 18 0 25 -3 6 -5 1 -5 -13z"/>
<path d="M5661 5284 c0 -11 3 -14 6 -6 3 7 2 16 -1 19 -3 4 -6 -2 -5 -13z"/>
<path d="M5842 5260 c0 -14 2 -19 5 -12 2 6 2 18 0 25 -3 6 -5 1 -5 -13z"/>
<path d="M5012 5245 c0 -24 35 -166 36 -145 1 8 -7 49 -17 90 -11 41 -19 66
-19 55z"/>
<path d="M4962 5225 c0 -16 2 -22 5 -12 2 9 2 23 0 30 -3 6 -5 -1 -5 -18z"/>
<path d="M5651 5234 c0 -11 3 -14 6 -6 3 7 2 16 -1 19 -3 4 -6 -2 -5 -13z"/>
<path d="M2142 5220 c0 -14 2 -19 5 -12 2 6 2 18 0 25 -3 6 -5 1 -5 -13z"/>
<path d="M5192 5210 c0 -14 2 -19 5 -12 2 6 2 18 0 25 -3 6 -5 1 -5 -13z"/>
<path d="M5832 5210 c0 -14 2 -19 5 -12 2 6 2 18 0 25 -3 6 -5 1 -5 -13z"/>
<path d="M5643 5160 c0 -25 2 -35 4 -22 2 12 2 32 0 45 -2 12 -4 2 -4 -23z"/>
<path d="M4971 5181 c-1 -8 15 -81 35 -164 34 -142 34 -150 17 -163 -31 -24
-118 -63 -124 -56 -3 4 -18 50 -32 102 -27 98 -55 175 -62 168 -2 -2 7 -34 20
-70 13 -37 34 -104 45 -149 l21 -81 -40 -217 c-22 -119 -42 -260 -45 -313 -7
-113 -25 -214 -67 -382 -45 -178 -69 -303 -69 -355 0 -33 10 -68 35 -120 28
-59 35 -84 35 -134 0 -34 5 -91 11 -126 5 -35 7 -71 4 -79 -10 -27 -41 14 -60
80 -14 50 -14 62 -3 69 9 6 5 8 -12 7 -27 -3 -28 0 -17 62 4 24 1 19 -10 -15
-8 -27 -19 -51 -24 -53 -5 -2 -9 -11 -9 -20 0 -13 2 -14 9 -4 5 9 10 0 15 -29
8 -48 43 -135 52 -127 3 4 -4 24 -15 46 -25 49 -38 122 -23 122 6 0 16 -19 22
-42 25 -97 50 -133 75 -107 10 11 12 41 6 144 -6 123 -9 135 -44 209 -20 43
-37 93 -37 110 0 47 16 128 66 332 58 239 63 265 74 424 5 75 21 190 34 256
14 65 28 141 32 169 9 66 14 51 54 -170 38 -215 37 -244 -18 -415 -59 -181
-108 -380 -123 -495 -18 -147 -15 -446 5 -590 16 -110 55 -309 121 -605 40
-184 52 -402 31 -602 -34 -337 -27 -402 104 -963 31 -130 38 -232 28 -368 -4
-49 -10 -63 -39 -93 -19 -20 -50 -43 -69 -52 -48 -23 -51 -54 -7 -81 19 -11
51 -21 72 -21 21 0 49 -9 64 -20 63 -44 178 -44 214 1 16 20 18 40 17 143 -1
67 -1 130 0 141 1 11 -6 49 -15 85 -15 55 -16 98 -11 285 3 121 12 272 20 335
20 149 20 305 0 483 -15 139 -15 146 7 273 18 108 22 174 24 399 1 158 9 338
19 435 9 91 16 222 16 293 l0 127 25 0 25 0 0 -162 c0 -90 5 -215 11 -278 6
-63 12 -243 14 -400 2 -207 8 -314 20 -390 18 -110 17 -213 -5 -415 -12 -108
-7 -221 16 -410 22 -173 30 -486 14 -555 -6 -30 -14 -128 -16 -217 -4 -155 -3
-163 17 -182 43 -40 175 -34 215 10 12 14 30 19 66 19 54 0 98 22 98 50 0 20
-16 35 -62 59 -17 9 -45 35 -61 59 l-31 42 0 143 c1 130 4 154 38 287 106 419
123 555 104 805 -7 93 -13 253 -12 355 1 200 -6 155 93 610 65 300 85 471 84
710 -1 276 -28 429 -130 745 -49 151 -52 221 -18 405 14 80 29 162 32 183 8
56 20 53 27 -6 4 -28 18 -101 32 -162 15 -65 29 -168 34 -250 9 -153 20 -211
86 -480 25 -99 47 -210 51 -248 6 -63 4 -72 -32 -148 -32 -70 -38 -92 -43
-177 -10 -178 -10 -177 18 -177 21 0 27 8 43 55 37 113 36 108 15 113 -14 4
-17 2 -9 -7 20 -24 -27 -162 -52 -153 -14 5 -14 33 0 179 8 90 15 119 43 173
48 95 46 119 -54 530 -26 109 -40 197 -51 320 -8 94 -25 222 -39 285 -49 227
-50 245 -21 350 15 52 37 121 51 154 14 36 17 53 8 41 -8 -11 -33 -77 -55
-146 l-40 -127 -38 15 c-21 8 -51 25 -66 37 l-28 23 23 92 c12 50 20 94 18 96
-2 3 -15 -40 -28 -95 -27 -116 -30 -111 68 -156 41 -18 52 -28 48 -42 -3 -9
-22 -102 -42 -207 -45 -227 -47 -298 -12 -410 58 -187 72 -235 67 -239 -2 -3
-33 2 -69 9 -191 40 -694 46 -899 11 -52 -9 -98 -15 -102 -14 -4 2 3 37 16 78
12 41 34 115 49 164 30 101 32 161 11 273 -25 130 -34 119 113 133 70 6 206
15 302 20 l175 9 -185 -4 c-102 -2 -238 -9 -303 -16 -65 -6 -120 -9 -122 -7
-3 3 -45 202 -45 215 0 1 24 12 53 26 28 13 63 33 75 43 l24 20 -37 154 c-39
168 -43 182 -44 161z m882 -1269 c60 -11 110 -22 112 -24 11 -11 55 -208 66
-296 10 -85 10 -104 -2 -119 -9 -11 -10 -14 -1 -9 6 4 12 2 12 -3 0 -15 -148
-132 -236 -187 -108 -67 -174 -88 -254 -79 -68 8 -130 9 -265 3 -77 -3 -83 -2
-152 37 -40 21 -130 82 -200 135 l-128 95 3 65 c2 69 33 245 56 320 15 51 15
51 201 75 166 21 643 13 788 -13z m-941 -541 c137 -104 211 -150 283 -178 58
-21 59 -22 25 -24 -19 -1 -28 -3 -18 -6 9 -2 51 3 94 11 43 8 82 12 86 10 13
-8 9 -175 -8 -349 -8 -88 -19 -306 -24 -485 -6 -236 -13 -351 -26 -420 -15
-86 -16 -109 -4 -245 18 -192 16 -376 -6 -557 -24 -205 -24 -482 0 -576 10
-40 15 -83 12 -98 -10 -40 -20 -20 -27 54 -6 54 -6 49 -3 -23 2 -49 8 -103 14
-120 l10 -30 -5 34 c-3 19 -2 31 2 28 3 -4 7 -45 9 -92 2 -80 1 -86 -23 -105
-43 -34 -149 -24 -196 18 -11 9 -36 16 -65 16 -34 1 -54 7 -71 23 -27 25 -22
53 10 53 13 0 42 21 73 52 l52 53 -2 155 c-1 142 -5 168 -38 305 -72 292 -87
361 -103 493 -15 121 -15 150 -2 300 8 92 14 257 13 367 -1 185 -3 211 -33
350 -81 378 -120 578 -130 673 -11 100 -16 392 -6 392 2 0 50 -35 107 -79z
m1127 -191 c-15 -198 -44 -372 -106 -650 -80 -362 -92 -493 -67 -730 12 -109
15 -205 11 -325 -5 -180 -18 -258 -93 -559 -50 -200 -65 -310 -53 -390 7 -45
7 -71 0 -85 -13 -24 -15 -53 -3 -34 6 9 20 -1 46 -33 22 -26 54 -53 73 -60 45
-19 52 -42 22 -66 -18 -14 -35 -18 -66 -15 -29 3 -46 0 -55 -10 -32 -38 -118
-59 -178 -43 -52 14 -64 38 -55 109 4 31 7 72 7 91 -1 27 1 31 7 15 6 -14 11
6 16 63 4 46 4 86 1 89 -3 4 -6 -14 -6 -38 0 -54 -14 -82 -24 -46 -3 13 2 49
10 78 14 46 16 90 11 289 -4 129 -13 287 -21 350 -20 153 -20 323 1 503 16
140 16 152 -2 255 -13 78 -20 194 -26 427 -4 176 -12 372 -18 435 -13 141 -14
377 -2 384 5 3 34 1 64 -5 46 -10 63 -9 108 6 84 27 164 73 284 163 l110 83 7
-63 c3 -35 2 -119 -3 -188z"/>
<path d="M5318 3873 c29 -2 74 -2 100 0 26 2 2 3 -53 3 -55 0 -76 -1 -47 -3z"/>
<path d="M5093 3863 c9 -2 23 -2 30 0 6 3 -1 5 -18 5 -16 0 -22 -2 -12 -5z"/>
<path d="M4998 3853 c6 -2 18 -2 25 0 6 3 1 5 -13 5 -14 0 -19 -2 -12 -5z"/>
<path d="M4938 3843 c7 -3 16 -2 19 1 4 3 -2 6 -13 5 -11 0 -14 -3 -6 -6z"/>
<path d="M5858 3843 c7 -3 16 -2 19 1 4 3 -2 6 -13 5 -11 0 -14 -3 -6 -6z"/>
<path d="M5108 3153 c6 -2 18 -2 25 0 6 3 1 5 -13 5 -14 0 -19 -2 -12 -5z"/>
<path d="M5162 484 c-1 -17 -4 -47 -7 -65 l-5 -34 11 34 c5 18 8 47 6 65 l-4
31 -1 -31z"/>
<path d="M5628 3163 c6 -2 18 -2 25 0 6 3 1 5 -13 5 -14 0 -19 -2 -12 -5z"/>
<path d="M5798 3163 c6 -2 18 -2 25 0 6 3 1 5 -13 5 -14 0 -19 -2 -12 -5z"/>
<path d="M5681 434 c0 -11 3 -14 6 -6 3 7 2 16 -1 19 -3 4 -6 -2 -5 -13z"/>
<path d="M5816 5144 c-4 -20 -5 -38 -3 -40 3 -3 8 11 11 32 4 20 5 38 3 40 -3
3 -8 -11 -11 -32z"/>
<path d="M2132 5140 c0 -14 2 -19 5 -12 2 6 2 18 0 25 -3 6 -5 1 -5 -13z"/>
<path d="M1671 5124 c0 -11 3 -14 6 -6 3 7 2 16 -1 19 -3 4 -6 -2 -5 -13z"/>
<path d="M5192 5110 c0 -14 2 -19 5 -12 2 6 2 18 0 25 -3 6 -5 1 -5 -13z"/>
<path d="M1253 5095 c3 -11 27 -97 52 -192 52 -193 52 -179 -1 -402 -18 -74
-28 -151 -34 -270 -6 -133 -16 -205 -50 -366 -22 -110 -44 -240 -47 -290 -5
-90 -5 -90 33 -160 32 -60 38 -83 45 -160 4 -49 10 -114 15 -144 6 -49 5 -53
-12 -49 -10 1 -27 19 -36 38 -10 19 -18 29 -18 22 0 -31 31 -72 55 -72 28 0
35 20 22 70 -4 19 -12 80 -16 136 -6 92 -10 106 -42 155 -33 52 -34 57 -33
144 1 65 14 152 48 315 40 190 48 249 53 375 4 117 12 176 34 270 16 66 29
131 29 144 0 56 19 0 39 -114 25 -142 26 -216 6 -322 -8 -43 -15 -111 -15
-151 0 -41 -13 -138 -29 -220 -46 -232 -54 -303 -54 -532 -1 -280 12 -380 103
-810 46 -220 59 -456 36 -676 -35 -329 -24 -476 59 -814 69 -279 78 -339 71
-465 -5 -99 -9 -114 -34 -150 -16 -24 -48 -50 -77 -65 -38 -19 -51 -31 -53
-51 -4 -34 38 -62 96 -65 24 -1 51 -9 60 -18 73 -65 224 -58 250 12 14 35 8
297 -8 387 -16 89 -8 375 16 540 21 151 22 403 1 584 -14 128 -14 140 5 255
14 88 22 204 28 421 5 165 16 365 24 445 9 80 16 198 16 263 0 110 1 117 20
117 19 0 20 -7 20 -157 1 -87 5 -192 11 -233 5 -41 14 -219 18 -395 6 -203 15
-362 26 -435 18 -121 17 -233 -5 -425 -13 -111 -7 -266 16 -440 21 -159 29
-456 14 -530 -13 -64 -24 -365 -15 -402 15 -65 176 -73 241 -12 11 10 40 22
65 25 96 14 129 59 67 92 -18 9 -52 35 -77 58 -51 47 -54 62 -53 239 0 86 7
129 50 300 92 366 96 396 96 620 0 110 -3 274 -8 365 -13 248 3 429 58 687 63
293 76 402 83 670 6 257 -4 394 -42 552 -32 134 -48 236 -40 261 3 11 -3 83
-15 159 l-21 139 26 158 c14 87 27 159 29 161 2 2 6 -16 10 -39 4 -24 18 -88
31 -143 17 -71 27 -151 34 -275 8 -154 15 -202 61 -403 65 -290 68 -346 21
-437 -29 -55 -35 -77 -36 -140 -1 -41 -6 -105 -10 -142 -7 -60 -6 -68 10 -74
22 -9 65 36 65 69 1 12 7 39 14 59 12 34 12 37 -7 42 -14 3 -17 2 -10 -5 21
-21 -25 -165 -50 -156 -13 4 -13 32 0 192 8 94 14 118 41 169 20 36 32 73 32
96 0 52 -22 175 -70 385 -35 153 -42 207 -50 355 -6 131 -15 200 -33 275 -51
203 -51 193 -2 382 58 219 59 222 46 202 -18 -28 -110 -393 -136 -539 -29
-168 -30 -205 -10 -320 8 -47 15 -117 15 -157 0 -40 5 -95 11 -123 6 -28 9
-53 7 -55 -1 -2 -50 3 -108 11 -228 30 -744 27 -895 -6 l-40 -9 45 4 c283 23
484 28 673 17 254 -15 326 -27 336 -56 18 -48 53 -262 49 -306 -1 -27 0 -46 5
-43 4 2 7 -2 7 -9 0 -21 -169 -182 -237 -226 -84 -54 -136 -67 -226 -57 -103
12 -248 9 -257 -5 -10 -16 -119 3 -186 34 -69 32 -152 96 -231 179 -57 59 -82
100 -50 81 9 -6 9 -4 -1 8 -10 13 -10 35 3 119 19 128 45 249 54 249 6 0 9 35
11 155 1 39 10 125 21 192 19 116 19 127 4 230 -9 59 -25 146 -35 193 -23 105
-117 441 -126 449 -4 3 -4 -3 -1 -14z m274 -1811 c85 -56 185 -88 252 -80 30
4 66 9 80 13 l24 6 -6 -164 c-4 -90 -12 -195 -18 -234 -5 -38 -14 -212 -19
-385 -7 -247 -13 -343 -30 -445 -22 -128 -22 -133 -6 -280 21 -198 20 -392 -4
-600 -25 -213 -27 -470 -4 -557 15 -59 11 -124 -7 -112 -5 3 -9 -7 -9 -21 0
-14 4 -24 9 -21 14 9 22 -154 8 -183 -27 -58 -156 -66 -218 -14 -22 19 -43 26
-78 27 -86 3 -123 69 -52 92 33 11 102 74 114 105 5 12 7 12 17 -1 10 -12 11
-12 4 5 -4 11 -7 70 -5 131 3 127 -10 211 -70 444 -81 315 -97 508 -64 795 29
260 16 472 -49 786 -65 311 -86 484 -86 703 l0 183 81 -78 c44 -43 105 -94
136 -115z m980 -26 c-7 -247 -23 -374 -76 -623 -52 -242 -59 -291 -71 -496 -9
-147 -8 -205 6 -340 31 -308 15 -468 -88 -874 -49 -194 -51 -205 -52 -348 l-1
-147 39 -46 c22 -26 59 -54 83 -65 24 -10 43 -25 43 -32 0 -24 -46 -47 -92
-47 -32 0 -49 -6 -66 -25 -31 -33 -84 -48 -145 -42 -83 8 -101 48 -73 167 6
21 5 22 -3 5 l-10 -20 0 20 c0 11 2 31 6 45 l7 25 7 -25 c6 -20 7 -17 8 18 1
24 -3 41 -8 38 -19 -12 -22 54 -5 114 15 53 16 91 11 283 -4 122 -13 272 -21
332 -20 145 -20 373 0 543 12 108 14 152 5 207 -26 171 -33 265 -37 495 -1
135 -10 310 -18 390 -9 80 -16 205 -16 279 l0 134 33 -7 c89 -18 117 -18 184
2 90 28 178 86 267 176 39 40 75 73 80 74 5 1 6 -86 3 -210z"/>
<path d="M1773 525 c0 -27 2 -38 4 -22 2 15 2 37 0 50 -2 12 -4 0 -4 -28z"/>
<path d="M1633 510 c0 -30 2 -43 4 -27 2 15 2 39 0 55 -2 15 -4 2 -4 -28z"/>
<path d="M1621 434 c0 -11 3 -14 6 -6 3 7 2 16 -1 19 -3 4 -6 -2 -5 -13z"/>
<path d="M2118 3183 c7 -3 16 -2 19 1 4 3 -2 6 -13 5 -11 0 -14 -3 -6 -6z"/>
<path d="M2163 495 c0 -22 2 -30 4 -17 2 12 2 30 0 40 -3 9 -5 -1 -4 -23z"/>
<path d="M2172 430 c0 -14 2 -19 5 -12 2 6 2 18 0 25 -3 6 -5 1 -5 -13z"/>
<path d="M5651 5084 c0 -11 3 -14 6 -6 3 7 2 16 -1 19 -3 4 -6 -2 -5 -13z"/>
<path d="M5790 5033 c-31 -139 -38 -153 -86 -175 -25 -11 -73 -26 -107 -33
-34 -7 -50 -14 -36 -14 43 -1 159 39 184 63 20 21 74 200 63 212 -3 2 -11 -22
-18 -53z"/>
<path d="M5051 5064 c0 -11 3 -14 6 -6 3 7 2 16 -1 19 -3 4 -6 -2 -5 -13z"/>
<path d="M5181 5064 c0 -11 3 -14 6 -6 3 7 2 16 -1 19 -3 4 -6 -2 -5 -13z"/>
<path d="M5061 5029 c-2 -30 41 -153 58 -166 23 -18 138 -53 170 -52 14 0 -1
7 -34 14 -128 28 -141 40 -178 170 -8 28 -15 43 -16 34z"/>
<path d="M5151 4993 c-10 -26 -10 -27 4 -9 8 11 15 23 15 28 0 15 -7 8 -19
-19z"/>
<path d="M5680 5005 c0 -5 5 -17 10 -25 5 -8 10 -10 10 -5 0 6 -5 17 -10 25
-5 8 -10 11 -10 5z"/>
<path d="M5368 4803 c28 -2 76 -2 105 0 28 2 5 3 -53 3 -58 0 -81 -1 -52 -3z"/>
<path d="M5655 4571 c55 -5 132 -11 170 -14 57 -5 62 -4 25 3 -25 5 -101 11
-170 14 -122 5 -122 4 -25 -3z"/>
<path d="M2742 4365 c0 -16 2 -22 5 -12 2 9 2 23 0 30 -3 6 -5 -1 -5 -18z"/>
<path d="M1139 4263 c-13 -16 -12 -17 4 -4 9 7 17 15 17 17 0 8 -8 3 -21 -13z"/>
<path d="M4620 4261 c0 -6 4 -13 10 -16 6 -3 7 1 4 9 -7 18 -14 21 -14 7z"/>
<path d="M6150 4251 c0 -10 19 -25 25 -20 1 2 -3 10 -11 17 -8 7 -14 8 -14 3z"/>
<path d="M4669 4233 c-13 -16 -12 -17 4 -4 16 13 21 21 13 21 -2 0 -10 -8 -17
-17z"/>
<path d="M1782 3843 c48 -2 129 -2 180 0 51 1 12 3 -87 3 -99 0 -141 -2 -93
-3z"/>
<path d="M1435 3400 c21 -22 41 -40 44 -40 3 0 -13 18 -34 40 -21 22 -41 40
-44 40 -3 0 13 -18 34 -40z"/>
<path d="M4661 3374 c0 -11 3 -14 6 -6 3 7 2 16 -1 19 -3 4 -6 -2 -5 -13z"/>
<path d="M2661 3335 c-1 -69 28 -175 49 -175 4 0 -1 18 -12 40 -11 22 -23 73
-28 112 -6 65 -7 68 -9 23z"/>
<path d="M6181 3354 c0 -11 3 -14 6 -6 3 7 2 16 -1 19 -3 4 -6 -2 -5 -13z"/>
<path d="M4672 3330 c0 -14 2 -19 5 -12 2 6 2 18 0 25 -3 6 -5 1 -5 -13z"/>
<path d="M1161 3284 c0 -11 3 -14 6 -6 3 7 2 16 -1 19 -3 4 -6 -2 -5 -13z"/>
<path d="M1148 3240 c-4 -14 -10 -36 -14 -50 l-7 -25 21 25 c17 20 23 22 31
11 6 -10 10 -10 16 -1 4 7 -1 13 -13 17 -12 3 -22 15 -24 27 -3 20 -4 19 -10
-4z"/>
<path d="M1192 3160 c0 -14 2 -19 5 -12 2 6 2 18 0 25 -3 6 -5 1 -5 -13z"/>
<path d="M2676 3129 c-8 -52 -25 -84 -70 -134 -36 -40 -45 -75 -27 -104 11
-18 55 -3 124 41 48 31 87 89 86 128 0 8 -7 -3 -15 -24 -18 -51 -38 -72 -99
-107 -60 -34 -65 -35 -65 -9 0 11 5 20 11 20 5 0 34 11 62 25 50 23 88 65 87
97 -1 7 -8 0 -17 -17 -24 -47 -41 -61 -89 -80 -56 -21 -66 -13 -31 23 15 16
25 31 21 34 -3 4 1 17 10 30 15 23 34 118 24 118 -3 0 -8 -18 -12 -41z m-75
-171 c-4 -13 -6 -28 -4 -35 2 -6 -1 -14 -6 -18 -15 -9 -14 48 1 63 17 17 19
15 9 -10z"/>
<path d="M2702 3100 c0 -19 2 -27 5 -17 2 9 2 25 0 35 -3 9 -5 1 -5 -18z"/>
<path d="M2680 3038 c-12 -22 -12 -22 6 -6 10 10 15 20 12 24 -4 3 -12 -5 -18
-18z"/>
</g>
</svg>
