<?xml version="1.0" standalone="no"?>
<!DOCTYPE svg PUBLIC "-//W3C//DTD SVG 20010904//EN"
 "http://www.w3.org/TR/2001/REC-SVG-20010904/DTD/svg10.dtd">
<svg version="1.0" xmlns="http://www.w3.org/2000/svg"
 width="736.000000pt" height="730.000000pt" viewBox="0 0 736.000000 730.000000"
 preserveAspectRatio="xMidYMid meet">

<g transform="translate(0.000000,730.000000) scale(0.100000,-0.100000)"
fill="#000000" stroke="none">
<path d="M1809 7155 c-64 -20 -137 -72 -176 -123 -49 -65 -66 -137 -61 -254 4
-75 2 -98 -8 -98 -28 0 -46 -32 -40 -72 10 -59 72 -177 101 -190 15 -7 27 -23
31 -42 3 -17 15 -48 25 -68 28 -54 27 -185 -1 -221 -30 -38 -259 -150 -454
-222 -64 -23 -106 -62 -144 -133 -47 -88 -62 -166 -62 -327 0 -77 -5 -169 -10
-205 -6 -36 -14 -144 -19 -240 -7 -139 -15 -196 -36 -275 -35 -127 -43 -307
-25 -549 7 -94 12 -297 12 -451 0 -272 1 -282 26 -359 14 -45 37 -93 54 -112
30 -34 137 -94 168 -94 56 0 44 80 -22 148 -31 32 -35 40 -16 28 20 -13 31
-15 46 -7 30 16 32 31 15 117 -8 43 -13 96 -10 117 7 51 -13 126 -48 179 -27
40 -28 45 -21 132 6 88 25 186 81 421 21 89 27 143 31 280 4 132 10 193 29
275 14 58 29 128 33 155 11 62 14 53 41 -115 25 -159 26 -199 6 -323 -10 -65
-12 -108 -6 -147 8 -46 4 -81 -25 -220 -46 -228 -68 -470 -60 -685 9 -272 30
-418 105 -748 48 -209 48 -210 61 -422 9 -140 8 -194 -5 -305 -31 -274 -18
-394 82 -802 56 -231 57 -234 58 -393 l1 -160 -39 -70 c-22 -38 -71 -111 -108
-162 -52 -68 -69 -99 -69 -123 0 -24 4 -31 15 -26 8 3 14 0 12 -6 -2 -14 73
-59 89 -54 6 3 17 -1 23 -7 7 -7 29 -13 49 -13 20 -1 49 -5 64 -9 42 -11 76 2
94 36 9 18 27 41 41 53 20 17 27 35 31 76 4 46 10 59 43 90 43 40 45 53 29
143 -7 37 -8 69 -1 92 7 26 4 52 -12 112 -28 107 -27 313 3 573 27 228 28 385
6 566 -15 126 -15 135 5 255 17 100 22 177 25 399 1 151 10 349 19 439 8 90
16 228 16 307 l1 144 26 0 27 0 2 -168 c1 -92 7 -205 13 -252 6 -47 15 -240
20 -430 5 -190 14 -367 20 -395 27 -130 30 -182 14 -307 -22 -172 -21 -323 5
-538 30 -254 32 -497 3 -598 -15 -56 -18 -81 -11 -107 6 -22 6 -57 -1 -97 -14
-91 -14 -94 30 -142 29 -31 40 -52 40 -74 0 -49 16 -78 71 -133 49 -49 53 -51
93 -45 22 4 57 6 77 6 53 0 66 20 44 70 -10 22 -27 47 -38 57 l-21 18 20 -35
c11 -19 27 -45 35 -58 12 -20 12 -24 -1 -32 -26 -17 -39 -11 -59 27 -11 21
-32 52 -47 68 -20 23 -22 24 -10 5 9 -14 24 -40 33 -58 17 -33 17 -34 -2 -48
-41 -30 -103 -6 -120 47 -3 10 -15 21 -25 24 -23 7 -29 25 -45 134 -7 50 -13
71 -14 51 l-2 -35 -30 34 c-28 31 -30 37 -24 85 9 68 15 87 25 81 5 -3 2 14
-7 38 -16 43 -15 49 7 140 20 87 22 112 17 269 -2 95 -15 250 -27 343 -24 185
-24 327 1 528 12 95 11 119 -4 210 -28 169 -38 324 -32 477 5 112 2 192 -14
349 -12 112 -21 268 -21 346 l0 143 30 12 c17 7 47 36 67 64 90 127 251 267
377 328 44 21 87 38 95 38 8 0 12 3 8 6 -10 10 -97 -24 -167 -65 -36 -22 -96
-66 -134 -100 -37 -33 -73 -59 -79 -58 -6 1 -40 -40 -75 -92 -67 -97 -99 -121
-160 -121 -64 0 -90 19 -156 113 -35 51 -83 110 -105 132 -30 28 -39 44 -35
59 5 16 4 17 -9 5 -14 -12 -10 -19 31 -61 62 -64 44 -61 -27 4 -92 84 -198
147 -322 191 -15 5 -15 13 -3 89 7 45 17 84 22 86 5 1 7 15 5 30 -6 46 5 52
72 36 33 -7 69 -13 80 -13 11 1 -14 8 -55 17 l-75 17 3 45 c1 25 2 86 2 135 0
50 7 142 16 206 l17 116 -26 149 c-14 82 -29 178 -32 214 -3 36 -8 85 -11 108
l-6 44 45 -46 c24 -25 52 -46 63 -46 15 0 13 4 -11 19 -69 42 -120 136 -137
249 -13 85 -27 124 -21 57 2 -27 15 -90 28 -140 13 -49 26 -107 29 -128 6 -48
-15 -190 -50 -332 -22 -92 -27 -135 -29 -265 -1 -144 -5 -169 -48 -360 -57
-254 -68 -314 -70 -398 -2 -61 1 -72 33 -121 31 -48 35 -62 41 -155 4 -55 11
-129 15 -163 7 -63 7 -63 -18 -63 -35 0 -45 15 -58 93 -7 38 -21 77 -32 90
l-19 22 11 -23 c9 -18 8 -26 -5 -38 -12 -13 -14 -29 -9 -82 8 -76 20 -106 59
-142 29 -27 60 -79 52 -87 -10 -9 -142 95 -160 126 -9 16 -29 65 -43 108 -24
70 -26 91 -23 203 1 69 2 139 2 155 -1 17 -2 59 -2 95 0 36 -8 173 -17 305
-19 286 -15 391 25 562 22 96 30 164 35 273 3 80 10 172 17 205 6 33 12 137
13 230 3 186 13 239 59 328 36 69 91 119 149 136 116 35 411 175 444 212 15
16 20 40 23 105 l3 85 47 -45 c70 -64 105 -80 179 -80 46 0 69 5 86 20 13 10
46 37 74 59 38 30 56 55 76 103 14 34 26 68 26 76 0 7 11 18 25 24 39 18 97
146 93 203 -2 33 -8 46 -23 53 -18 8 -20 18 -20 125 0 107 -3 121 -29 179 -55
118 -161 184 -306 189 -55 2 -101 -2 -131 -12z m276 -29 c139 -68 198 -198
180 -390 -6 -72 -25 -107 -25 -48 -1 26 -38 118 -39 96 -1 -7 6 -25 14 -40 24
-47 19 -163 -13 -294 -36 -144 -46 -162 -127 -238 l-66 -62 -72 0 c-84 0 -112
13 -193 94 -55 56 -60 68 -99 236 -16 66 -20 100 -26 200 l-1 25 -8 -25 c-7
-23 -8 -22 -16 15 -5 22 -9 81 -8 130 0 116 25 175 100 244 74 68 143 91 255
88 70 -2 96 -8 144 -31z m-491 -478 c23 -32 20 -44 -6 -22 l-22 19 21 -28 c12
-15 25 -42 28 -60 4 -18 9 -41 11 -52 4 -16 3 -17 -5 -5 -6 8 -11 10 -11 4 0
-6 7 -17 15 -24 16 -14 21 -50 6 -50 -22 0 -85 114 -96 173 -12 60 28 90 59
45z m714 -26 c4 -61 -57 -192 -91 -192 -5 0 -6 8 -2 18 3 9 13 57 21 106 15
94 27 119 53 114 11 -2 17 -16 19 -46z m-891 -2766 c128 -65 266 -182 387
-330 21 -26 49 -51 62 -56 24 -9 24 -12 24 -132 0 -68 -7 -195 -16 -283 -8
-88 -19 -308 -24 -490 -6 -218 -14 -355 -24 -405 -19 -96 -19 -149 -1 -285 19
-140 19 -279 1 -430 -42 -347 -45 -541 -10 -681 16 -65 16 -74 1 -118 -9 -25
-12 -44 -7 -41 10 6 16 -13 25 -76 6 -43 4 -49 -25 -80 l-31 -34 4 49 c3 33 2
44 -4 34 -5 -9 -13 -58 -19 -110 -8 -86 -11 -95 -40 -119 -16 -14 -30 -32 -30
-39 0 -42 -74 -66 -115 -36 -17 12 -17 16 13 72 l31 59 -29 -34 c-16 -19 -32
-47 -35 -62 -7 -33 -39 -47 -62 -27 -9 7 -23 13 -32 13 -24 0 -25 32 -2 71 12
19 21 38 21 42 0 13 -55 -62 -55 -75 0 -7 -4 -12 -10 -10 -5 1 -9 5 -8 10 2 4
-2 7 -7 7 -16 0 -11 26 11 54 25 32 14 34 -18 4 -47 -44 -34 -5 23 69 59 77
94 131 148 226 22 38 25 51 16 62 -10 11 -9 30 1 80 16 84 8 148 -60 430 -100
422 -111 530 -82 820 19 196 3 456 -39 645 -63 279 -89 419 -105 555 -17 150
-22 439 -10 598 6 84 10 97 25 97 10 0 58 -20 107 -44z m753 -180 c0 -2 -8
-10 -17 -17 -16 -13 -17 -12 -4 4 13 16 21 21 21 13z m-1046 -365 c-2 -8 16
-33 41 -57 43 -42 56 -64 36 -64 -5 0 -31 19 -57 43 -44 40 -48 47 -49 93 0
27 -4 55 -8 61 -4 6 -2 24 5 40 11 27 12 26 24 -37 7 -36 11 -71 8 -79z m-145
39 c0 -8 -6 0 -14 19 -8 18 -15 38 -14 45 1 15 28 -46 28 -64z m77 -140 c17
-14 41 -33 54 -43 24 -17 24 -17 2 -6 -39 18 -104 82 -119 116 -22 55 -14 61
11 8 13 -28 36 -62 52 -75z m158 -45 c8 -23 -12 -28 -23 -6 -6 11 -11 22 -11
25 0 11 29 -6 34 -19z"/>
<path d="M1718 7003 c7 -3 16 -2 19 1 4 3 -2 6 -13 5 -11 0 -14 -3 -6 -6z"/>
<path d="M2108 7003 c6 -2 18 -2 25 0 6 3 1 5 -13 5 -14 0 -19 -2 -12 -5z"/>
<path d="M1670 6975 c-13 -14 -22 -27 -19 -29 2 -2 14 10 27 25 29 36 24 38
-8 4z"/>
<path d="M1758 6993 c7 -3 16 -2 19 1 4 3 -2 6 -13 5 -11 0 -14 -3 -6 -6z"/>
<path d="M2068 6993 c7 -3 16 -2 19 1 4 3 -2 6 -13 5 -11 0 -14 -3 -6 -6z"/>
<path d="M2166 6980 c6 -8 16 -24 22 -35 6 -11 12 -15 12 -8 0 7 -10 22 -22
35 -13 13 -18 17 -12 8z"/>
<path d="M1988 6973 c7 -3 16 -2 19 1 4 3 -2 6 -13 5 -11 0 -14 -3 -6 -6z"/>
<path d="M1643 6895 c0 -22 2 -30 4 -17 2 12 2 30 0 40 -3 9 -5 -1 -4 -23z"/>
<path d="M2203 6875 c0 -27 2 -38 4 -22 2 15 2 37 0 50 -2 12 -4 0 -4 -28z"/>
<path d="M1649 6815 c-3 -22 -9 -49 -13 -60 -4 -11 0 -7 9 8 9 15 15 42 13 60
-3 31 -4 31 -9 -8z"/>
<path d="M1723 6734 c-3 -8 -11 -13 -19 -10 -13 5 -41 -20 -32 -29 9 -9 65 20
61 32 -2 6 4 13 14 16 17 4 17 5 0 6 -10 0 -20 -6 -24 -15z"/>
<path d="M1800 6740 c11 -7 6 -10 -20 -11 l-35 0 45 -15 c58 -18 68 -18 44 2
-18 15 -18 15 6 10 24 -5 24 -4 6 9 -11 8 -29 15 -40 15 -17 0 -18 -2 -6 -10z"/>
<path d="M2004 6736 c-29 -22 -7 -38 35 -26 33 9 82 4 114 -12 12 -6 17 -5 17
5 0 15 -20 37 -34 37 -5 0 -1 -7 10 -16 18 -14 18 -15 -6 -7 -14 4 -51 7 -83
7 -70 -2 -66 8 6 17 l52 6 -46 2 c-26 0 -54 -5 -65 -13z"/>
<path d="M1738 6652 c-16 -9 -28 -20 -28 -25 0 -4 4 -6 10 -2 5 3 18 0 28 -6
25 -16 76 -4 68 16 -3 8 0 15 7 16 16 1 -24 17 -43 18 -8 0 -27 -7 -42 -17z"/>
<path d="M2025 6656 c-14 -11 -15 -14 -4 -10 11 3 18 -2 22 -15 3 -15 13 -21
31 -21 14 0 26 5 26 11 0 6 9 9 20 6 23 -6 26 5 6 22 -24 20 -79 24 -101 7z"/>
<path d="M1860 6452 c0 -6 9 -12 20 -15 11 -3 20 -3 20 -1 0 2 -9 8 -20 14
-11 6 -20 7 -20 2z"/>
<path d="M1965 6440 c-16 -7 -17 -9 -3 -9 9 -1 20 4 23 9 7 11 7 11 -20 0z"/>
<path d="M1818 6343 c6 -2 18 -2 25 0 6 3 1 5 -13 5 -14 0 -19 -2 -12 -5z"/>
<path d="M2008 6343 c6 -2 18 -2 25 0 6 3 1 5 -13 5 -14 0 -19 -2 -12 -5z"/>
<path d="M2265 6630 c-3 -6 1 -7 9 -4 18 7 21 14 7 14 -6 0 -13 -4 -16 -10z"/>
<path d="M1674 2381 c7 -11 46 -35 46 -28 0 3 -12 12 -26 22 -15 9 -23 12 -20
6z"/>
<path d="M1480 2286 c0 -14 4 -27 8 -30 5 -3 6 8 4 25 -5 35 -12 38 -12 5z"/>
<path d="M1732 2260 c0 -14 2 -19 5 -12 2 6 2 18 0 25 -3 6 -5 1 -5 -13z"/>
<path d="M1491 2174 c0 -11 3 -14 6 -6 3 7 2 16 -1 19 -3 4 -6 -2 -5 -13z"/>
<path d="M1690 2100 c-6 -11 -8 -20 -6 -20 3 0 10 9 16 20 6 11 8 20 6 20 -3
0 -10 -9 -16 -20z"/>
<path d="M1511 293 c-12 -16 -25 -33 -31 -40 -13 -16 -13 -20 3 -19 6 0 21 19
33 43 24 50 23 54 -5 16z"/>
<path d="M1100 3331 c0 -6 4 -13 10 -16 6 -3 7 1 4 9 -7 18 -14 21 -14 7z"/>
<path d="M5268 7147 c-148 -63 -248 -198 -304 -412 -18 -70 -27 -129 -28 -196
l-1 -96 57 -116 c66 -131 123 -194 178 -194 43 0 53 -13 44 -59 -14 -76 -126
-146 -355 -223 -80 -26 -138 -52 -161 -71 -80 -66 -128 -224 -128 -418 0 -59
-5 -145 -10 -192 -5 -47 -14 -152 -20 -235 -8 -104 -20 -185 -40 -265 -48
-189 -51 -225 -49 -669 0 -229 -2 -454 -6 -501 -6 -67 -3 -98 10 -144 13 -43
20 -55 27 -45 6 10 7 5 4 -16 -4 -20 0 -40 14 -62 18 -31 80 -78 109 -85 8 -2
23 -11 33 -21 11 -10 29 -17 41 -15 18 2 23 11 25 47 3 40 0 46 -42 87 -44 42
-67 76 -27 40 16 -15 23 -16 42 -6 21 12 21 16 14 84 -4 39 -9 110 -10 157 -3
76 -7 94 -39 155 l-36 69 11 75 c6 41 33 161 60 267 71 277 80 323 89 473 5
79 20 181 35 245 14 61 27 135 30 165 3 32 -7 -1 -24 -80 -38 -171 -48 -235
-61 -390 -7 -88 -22 -171 -50 -280 -69 -264 -92 -373 -94 -440 -1 -57 3 -70
29 -109 27 -40 30 -54 38 -170 15 -211 15 -206 -9 -209 -25 -4 -40 26 -53 110
-9 55 -28 98 -43 98 -5 0 -3 -9 4 -19 9 -15 9 -25 1 -43 -13 -24 -13 -115 -1
-95 4 7 11 1 17 -15 5 -15 33 -52 61 -82 27 -31 50 -61 50 -67 0 -13 -82 53
-104 84 l-17 22 11 -22 c6 -12 33 -41 60 -65 28 -24 50 -49 50 -57 0 -10 -3
-11 -14 -2 -11 9 -15 9 -19 -1 -3 -9 -13 -5 -33 13 -16 15 -41 34 -56 44 -34
21 -62 65 -90 141 -20 57 -21 77 -24 544 -1 267 2 525 7 574 5 49 23 144 40
210 20 80 34 165 40 251 5 72 11 144 14 160 3 17 10 122 15 235 13 265 34 353
105 438 27 32 107 75 162 87 31 6 32 6 36 -37 l4 -43 1 48 c2 34 6 47 17 47
11 0 15 -13 17 -52 l1 -53 6 59 6 59 70 31 c106 47 183 93 201 121 10 15 18
52 20 93 2 37 0 57 -4 45 l-7 -22 -40 22 c-21 12 -54 42 -72 65 -18 24 -33 40
-33 35 0 -14 34 -59 65 -86 17 -15 25 -27 19 -27 -21 0 -96 82 -121 133 -14
29 -34 68 -44 87 -11 19 -20 57 -20 85 -1 42 -2 45 -8 20 -6 -27 -8 -26 -13
20 -8 63 7 155 33 209 12 26 14 34 4 22 -21 -27 -19 -10 10 81 46 147 147 278
255 331 47 23 68 27 145 27 79 0 94 -3 123 -24 18 -13 35 -21 37 -19 2 2 -12
15 -32 28 -54 37 -175 40 -255 7z m-668 -3740 c0 -17 4 -48 10 -66 16 -56 4
-47 -19 13 -20 53 -20 86 0 86 5 0 9 -15 9 -33z m-123 -79 c-3 -8 -6 -5 -6 6
-1 11 2 17 5 13 3 -3 4 -12 1 -19z m90 -134 c54 -40 62 -49 28 -30 -51 27
-105 84 -105 111 0 5 9 -4 19 -21 11 -18 37 -44 58 -60z"/>
<path d="M5646 7088 c29 -20 66 -58 91 -96 46 -68 96 -207 92 -257 -1 -16 5
-54 14 -84 20 -64 21 -150 2 -206 -11 -34 -13 -36 -15 -15 -1 14 -6 -3 -11
-38 -8 -65 -47 -149 -67 -145 -6 2 -18 -10 -27 -26 -8 -16 -29 -41 -47 -55
-18 -14 -27 -26 -21 -26 7 0 41 28 76 63 56 55 67 72 96 152 44 122 48 183 21
338 -12 71 -27 145 -35 166 -37 107 -115 215 -176 247 -47 24 -44 16 7 -18z"/>
<path d="M5160 6965 c-24 -25 -42 -45 -39 -45 3 0 25 20 49 45 24 25 42 45 39
45 -3 0 -25 -20 -49 -45z"/>
<path d="M5453 6921 c-37 -59 -166 -182 -239 -227 -39 -24 -75 -44 -79 -44 -5
0 11 21 35 48 25 26 11 14 -31 -28 -79 -78 -102 -112 -114 -169 -5 -23 -4 -31
4 -27 7 5 11 -4 11 -26 1 -27 2 -30 11 -16 7 12 6 30 -2 58 -12 38 -11 43 18
83 42 59 92 82 175 81 41 0 74 -6 85 -15 16 -12 16 -12 -1 8 -10 12 -37 26
-59 30 l-41 8 67 53 c37 30 87 77 112 105 25 28 45 47 45 41 0 -23 -64 -112
-113 -157 l-52 -48 39 15 c72 29 162 103 205 167 23 34 41 66 41 72 0 18 41
-27 62 -67 33 -64 92 -258 91 -296 -1 -19 1 -26 4 -15 3 11 9 24 13 29 5 5 0
26 -11 47 -32 64 -21 67 16 5 19 -32 35 -64 35 -72 0 -26 -49 -147 -66 -163
-16 -15 -16 -15 -10 2 3 10 8 44 11 75 l4 57 -9 -53 c-6 -29 -22 -90 -36 -135
-24 -72 -34 -89 -86 -139 -132 -127 -229 -129 -357 -7 -50 47 -101 134 -101
172 0 9 -6 17 -14 17 -8 0 -24 12 -35 28 -11 15 -21 22 -21 15 0 -6 14 -25 30
-42 17 -16 37 -49 45 -72 30 -83 115 -168 212 -211 39 -17 51 -18 91 -8 25 6
67 26 92 45 44 32 46 33 47 12 6 -80 17 -129 35 -153 20 -25 267 -154 296
-154 11 0 13 -14 8 -67 -12 -145 -18 -258 -13 -253 3 3 10 72 16 154 6 82 13
152 16 154 10 10 134 -41 168 -69 43 -36 80 -103 102 -186 10 -35 19 -140 25
-268 17 -399 30 -523 66 -668 39 -155 43 -220 44 -762 1 -571 1 -567 -13 -558
-6 4 -8 -2 -5 -15 4 -12 3 -20 -1 -18 -4 3 -17 -15 -30 -39 -21 -40 -117 -125
-141 -125 -19 0 -10 20 25 58 51 57 75 116 75 187 0 34 -5 66 -11 72 -9 9 -8
19 5 40 l17 28 -21 -24 c-21 -25 -25 -37 -35 -113 -3 -27 -11 -48 -16 -48 -6
0 -7 -5 -3 -12 4 -6 -1 -17 -11 -25 -11 -7 -14 -13 -7 -13 21 0 43 47 49 104
3 31 10 56 14 56 13 0 4 -117 -9 -133 -7 -8 -10 -22 -6 -31 4 -11 -8 -31 -38
-61 -25 -25 -43 -47 -41 -49 3 -3 0 -13 -6 -23 -9 -16 -10 -14 -11 12 0 23 11
42 45 75 24 24 42 46 40 49 -3 3 -26 -15 -50 -39 -38 -37 -45 -50 -45 -82 0
-52 19 -57 85 -23 90 45 123 81 147 160 11 39 21 90 20 115 0 25 -2 266 -5
535 -4 510 -7 551 -53 725 -26 100 -64 518 -64 707 0 193 -54 351 -141 409
-25 17 -94 47 -153 68 -143 49 -318 137 -334 167 -6 13 -13 40 -14 59 -2 28 1
37 20 45 12 5 22 14 22 19 0 5 8 19 17 30 10 12 2 6 -18 -11 -19 -18 -38 -33
-42 -33 -20 0 -3 56 28 95 20 23 42 63 51 89 9 25 19 46 23 46 3 0 17 18 31
40 14 22 28 40 32 40 5 0 8 11 8 24 0 14 5 37 11 53 l11 28 13 -35 c18 -48 18
-24 0 37 -8 28 -22 57 -31 64 -18 15 -76 127 -104 202 -19 50 -82 137 -100
137 -4 0 -13 -14 -21 -31 -20 -49 -83 -124 -133 -158 -59 -41 -65 -39 -25 6
34 39 93 157 86 176 -1 5 -12 -5 -24 -22z m867 -3656 c0 -8 -14 -29 -31 -47
l-31 -33 26 36 c14 20 26 41 26 47 0 7 2 12 5 12 3 0 5 -7 5 -15z"/>
<path d="M5082 6868 c-36 -54 -44 -68 -39 -68 2 0 21 25 41 55 20 30 34 55 32
55 -3 0 -18 -19 -34 -42z"/>
<path d="M5239 6783 l-24 -28 28 24 c15 14 27 26 27 28 0 8 -8 1 -31 -24z"/>
<path d="M5530 6670 c-28 -6 -21 -8 36 -9 39 0 75 -6 82 -13 8 -8 12 -8 12 -1
0 22 -71 35 -130 23z"/>
<path d="M5172 6585 c-21 -20 -22 -21 -3 -37 18 -15 19 -15 24 3 7 26 24 24
37 -3 11 -23 11 -23 -5 -3 l-17 20 4 -20 c4 -27 57 -34 74 -10 7 9 18 14 24
10 9 -6 9 -2 1 13 -15 28 -27 35 -76 42 -33 5 -45 2 -63 -15z"/>
<path d="M5533 6594 c-17 -9 -34 -23 -38 -32 -5 -14 -4 -14 6 -5 10 10 15 8
23 -10 7 -13 23 -23 38 -25 22 -3 29 2 34 23 7 28 30 29 28 1 -2 -20 2 -20 30
1 l23 18 -37 16 c-61 28 -74 29 -107 13z"/>
<path d="M4981 6584 c0 -11 3 -14 6 -6 3 7 2 16 -1 19 -3 4 -6 -2 -5 -13z"/>
<path d="M5092 6490 c-1 -19 5 -48 13 -65 8 -17 12 -21 10 -9 -3 12 -10 42
-14 65 -9 43 -9 43 -9 9z"/>
<path d="M5012 6425 c0 -16 2 -22 5 -12 2 9 2 23 0 30 -3 6 -5 -1 -5 -18z"/>
<path d="M5052 6340 c0 -14 2 -19 5 -12 2 6 2 18 0 25 -3 6 -5 1 -5 -13z"/>
<path d="M5761 6304 c0 -11 3 -14 6 -6 3 7 2 16 -1 19 -3 4 -6 -2 -5 -13z"/>
<path d="M5295 6290 c3 -5 16 -10 28 -9 21 0 21 1 2 9 -28 12 -37 12 -30 0z"/>
<path d="M5480 6290 c-12 -8 -11 -10 7 -10 12 0 25 5 28 10 8 13 -15 13 -35 0z"/>
<path d="M5368 6273 c6 -2 18 -2 25 0 6 3 1 5 -13 5 -14 0 -19 -2 -12 -5z"/>
<path d="M5375 6230 c28 -12 47 -12 40 0 -3 6 -18 10 -33 9 -24 0 -25 -1 -7
-9z"/>
<path d="M2149 6196 c-12 -51 1 -105 31 -130 49 -41 364 -192 442 -211 47 -12
119 -84 149 -150 38 -84 49 -156 49 -315 0 -76 5 -162 10 -191 6 -30 15 -133
20 -229 7 -133 16 -199 36 -275 33 -128 41 -318 24 -580 -13 -204 -19 -706 -8
-699 3 2 4 -5 1 -17 -5 -16 -8 -18 -15 -7 -6 8 -7 4 -3 -12 7 -29 -27 -135
-52 -162 -28 -31 -36 -20 -9 12 23 28 61 128 52 137 -2 3 -12 -20 -22 -49 -9
-29 -24 -63 -32 -76 -17 -27 -140 -117 -148 -109 -9 8 15 48 58 96 54 62 47
70 -10 11 -44 -46 -72 -62 -72 -42 0 4 21 28 46 52 25 25 52 58 60 73 8 15 19
25 24 22 13 -8 4 94 -10 110 -8 10 -8 20 0 37 l11 23 -19 -21 c-10 -12 -24
-53 -31 -93 -16 -87 -37 -119 -69 -102 -14 7 -23 22 -23 39 -2 25 -2 25 -6 4
-5 -28 22 -62 48 -62 27 0 48 39 60 109 11 58 29 75 29 27 0 -50 -31 -111 -80
-156 -42 -39 -50 -52 -50 -81 0 -19 6 -43 13 -54 13 -17 16 -17 68 7 30 14 73
42 96 62 35 31 46 51 72 129 l31 93 -8 144 c-10 158 -10 154 15 571 18 315 15
385 -31 574 -17 69 -26 146 -31 245 -3 80 -13 190 -21 245 -7 55 -14 161 -14
235 0 151 -17 234 -63 313 -40 67 -90 104 -202 148 -108 42 -347 158 -380 184
-15 12 -21 32 -25 83 -4 50 -7 60 -11 38z m643 -3008 c-6 -7 -25 -22 -44 -32
-39 -23 -32 -13 14 20 38 26 45 29 30 12z m-123 -30 c-8 -14 -14 -18 -17 -10
-4 13 17 46 25 38 3 -2 -1 -15 -8 -28z"/>
<path d="M1910 6020 c0 -5 5 -10 11 -10 5 0 7 5 4 10 -3 6 -8 10 -11 10 -2 0
-4 -4 -4 -10z"/>
<path d="M2398 5863 c6 -2 18 -2 25 0 6 3 1 5 -13 5 -14 0 -19 -2 -12 -5z"/>
<path d="M1563 5853 c20 -2 54 -2 75 0 20 2 3 4 -38 4 -41 0 -58 -2 -37 -4z"/>
<path d="M1733 5853 c15 -2 39 -2 55 0 15 2 2 4 -28 4 -30 0 -43 -2 -27 -4z"/>
<path d="M2073 5853 c15 -2 39 -2 55 0 15 2 2 4 -28 4 -30 0 -43 -2 -27 -4z"/>
<path d="M2218 5853 c17 -2 47 -2 65 0 17 2 3 4 -33 4 -36 0 -50 -2 -32 -4z"/>
<path d="M1854 5831 c4 -6 16 -16 28 -22 15 -8 18 -8 14 0 -4 6 -16 16 -28 22
-15 8 -18 8 -14 0z"/>
<path d="M5883 5790 c0 -25 2 -35 4 -22 2 12 2 32 0 45 -2 12 -4 2 -4 -23z"/>
<path d="M5273 5813 c9 -2 23 -2 30 0 6 3 -1 5 -18 5 -16 0 -22 -2 -12 -5z"/>
<path d="M5538 5813 c17 -2 47 -2 65 0 17 2 3 4 -33 4 -36 0 -50 -2 -32 -4z"/>
<path d="M5377 5779 c7 -7 15 -10 18 -7 3 3 -2 9 -12 12 -14 6 -15 5 -6 -5z"/>
<path d="M4933 5695 c0 -27 2 -38 4 -22 2 15 2 37 0 50 -2 12 -4 0 -4 -28z"/>
<path d="M4892 5700 c-1 -19 3 -68 8 -107 9 -70 8 -76 -25 -160 -19 -50 -36
-81 -39 -73 -3 8 -10 34 -16 57 -6 23 -14 44 -19 47 -4 3 0 -25 10 -62 15 -52
18 -84 13 -144 -7 -80 12 -231 28 -222 4 3 8 -6 8 -19 0 -14 14 -99 31 -189
41 -215 38 -273 -24 -463 -104 -319 -131 -478 -132 -770 0 -267 17 -386 121
-830 25 -104 51 -227 59 -271 23 -132 30 -373 14 -509 -16 -147 -17 -323 0
-430 7 -44 45 -210 84 -370 l72 -290 -2 -131 c-1 -124 -3 -135 -31 -190 -17
-33 -41 -75 -54 -94 -13 -19 -43 -63 -66 -96 -49 -72 -52 -101 -14 -135 31
-29 74 -52 88 -48 5 2 18 -2 30 -8 11 -7 26 -8 34 -3 8 5 26 2 46 -8 43 -20
76 -6 105 43 12 19 25 35 29 35 13 0 30 59 30 105 0 33 6 47 29 69 l30 29 -4
131 c-1 72 -10 163 -19 201 -22 97 -20 314 4 555 24 238 25 311 3 512 -15 150
-15 163 2 260 13 78 20 191 26 463 4 198 13 405 18 460 6 55 10 182 11 283 l0
182 31 0 31 0 -7 -107 c-4 -68 0 -196 10 -348 9 -132 18 -366 20 -520 2 -202
7 -305 19 -370 20 -112 20 -178 1 -330 -20 -161 -19 -265 6 -490 26 -235 23
-530 -5 -605 -12 -31 -15 -56 -10 -80 4 -19 7 -37 7 -40 -17 -132 -15 -147 15
-181 24 -28 30 -45 34 -98 3 -47 10 -68 24 -80 10 -9 27 -28 36 -42 25 -39 70
-55 111 -38 17 8 38 12 46 11 10 -3 10 0 2 10 -6 7 -25 35 -42 61 -18 26 -33
46 -36 43 -2 -2 7 -22 21 -45 32 -51 32 -59 0 -72 -35 -13 -61 -4 -82 29 -9
15 -29 39 -44 54 -25 23 -28 34 -29 90 -1 65 -15 145 -18 101 -1 -31 -16 -29
-30 5 -8 19 -9 47 -2 95 5 37 7 82 4 100 -2 18 2 60 11 94 9 33 19 114 22 180
6 116 3 166 -32 516 -18 177 -18 179 4 370 l22 193 -21 139 c-17 114 -21 183
-20 370 0 126 -6 318 -14 425 -8 107 -15 272 -15 366 l0 172 26 17 c14 9 69
53 121 97 169 142 436 305 454 277 14 -23 22 -202 16 -379 -8 -229 -23 -316
-151 -850 -19 -80 -39 -176 -45 -215 -19 -128 -24 -334 -11 -440 18 -151 15
-369 -9 -505 -11 -63 -45 -215 -75 -338 -68 -273 -84 -375 -69 -429 7 -21 9
-50 6 -64 -6 -33 37 -120 123 -245 45 -67 64 -104 64 -126 0 -17 -3 -28 -7
-24 -5 4 -8 11 -8 14 0 4 -9 18 -19 32 -14 19 -17 20 -11 5 4 -11 10 -28 12
-37 3 -10 10 -18 15 -18 6 0 5 -7 -2 -15 -19 -22 -27 -19 -46 20 -9 20 -20 38
-25 41 -14 8 -11 -4 7 -31 9 -14 14 -34 11 -45 -4 -18 -2 -20 16 -14 35 10 70
49 70 78 0 17 -26 65 -65 124 -93 139 -120 196 -126 267 -10 129 -2 179 62
444 107 434 120 554 93 841 -27 283 -12 421 93 847 161 653 155 993 -27 1573
-63 199 -62 207 14 620 4 24 7 29 10 15 2 -11 20 -99 38 -197 19 -97 35 -206
35 -241 0 -107 18 -206 85 -472 35 -139 67 -281 71 -317 6 -60 4 -68 -26 -122
-32 -57 -34 -63 -42 -223 -9 -166 -5 -194 26 -193 6 0 3 5 -6 11 -21 12 -24
59 -5 78 10 11 9 12 -2 6 -11 -6 -13 -3 -7 16 4 13 10 74 13 134 4 99 8 116
35 165 29 51 30 59 25 130 -4 41 -36 190 -71 330 -66 259 -86 374 -86 487 0
35 -12 116 -26 181 -50 230 -54 258 -38 331 9 43 12 91 8 137 -6 66 2 116 33
201 3 10 3 15 -2 11 -4 -4 -18 -38 -30 -75 l-22 -68 -13 39 c-16 49 -60 146
-66 146 -2 0 3 -17 12 -37 9 -21 30 -76 47 -123 56 -158 35 -286 -61 -370 -25
-22 -42 -40 -38 -40 3 0 24 16 46 36 l40 36 0 -28 c-1 -16 -14 -96 -30 -179
-39 -205 -36 -256 30 -460 28 -87 49 -163 46 -170 -5 -13 -148 -47 -218 -50
-26 -2 -51 -6 -57 -9 -27 -17 -292 -28 -436 -17 -217 15 -433 54 -442 79 -3 7
13 70 35 140 22 70 46 146 52 170 18 70 14 179 -13 317 -13 72 -27 148 -30
169 l-6 39 32 -30 c32 -31 68 -53 84 -53 4 1 -5 8 -22 17 -78 41 -125 121
-133 225 -5 77 5 125 53 248 l34 87 -13 109 c-8 60 -14 93 -14 74z m53 -1559
c302 -65 698 -61 973 9 39 10 74 15 76 11 2 -3 6 -18 10 -33 5 -20 2 -28 -11
-31 -15 -4 -14 -5 3 -6 21 -1 34 -40 49 -146 l5 -40 -77 -39 c-112 -55 -251
-148 -385 -259 -65 -53 -118 -93 -118 -88 0 5 15 22 33 37 61 51 202 188 162
157 -22 -17 -79 -67 -127 -112 -81 -76 -89 -81 -130 -81 -40 0 -48 5 -103 61
-33 33 -82 79 -110 101 -27 23 -4 -3 53 -57 57 -53 100 -100 97 -103 -3 -3
-24 12 -48 34 -77 73 -161 141 -244 196 -86 58 -220 131 -263 143 -14 4 19
-16 74 -44 135 -71 215 -124 324 -217 52 -43 110 -92 130 -107 20 -16 41 -38
46 -50 10 -27 0 -379 -15 -507 -6 -52 -12 -232 -14 -400 -1 -239 -5 -329 -20
-415 -18 -114 -18 -164 5 -405 11 -112 8 -202 -11 -365 -31 -275 -29 -541 7
-647 13 -41 14 -57 5 -88 -8 -27 -8 -46 -1 -65 20 -53 7 -145 -20 -145 -6 0
-10 12 -10 27 0 54 -9 15 -19 -82 -8 -78 -14 -103 -29 -116 -11 -8 -27 -29
-36 -47 -18 -36 -54 -49 -85 -32 -26 13 -26 21 -1 72 27 56 25 59 -9 12 -16
-21 -28 -41 -25 -45 7 -13 -31 -38 -45 -30 -18 11 -8 66 17 95 13 16 10 15
-10 -3 -15 -13 -28 -35 -30 -50 -4 -32 -32 -35 -36 -4 -2 12 4 37 13 55 l16
33 -20 -25 c-12 -14 -24 -35 -27 -48 -4 -13 -11 -21 -18 -19 -13 4 -9 56 6 74
5 7 6 17 2 24 -4 8 -12 3 -21 -16 -10 -19 -18 -24 -25 -17 -7 7 12 45 64 124
94 140 131 213 123 239 -4 10 -1 44 5 75 15 70 8 113 -71 429 -103 413 -115
529 -84 824 25 235 5 437 -76 781 -101 423 -123 570 -123 815 0 217 19 387 61
533 11 42 18 52 32 47 9 -2 57 -14 106 -24z"/>
<path d="M5938 4083 c7 -3 16 -2 19 1 4 3 -2 6 -13 5 -11 0 -14 -3 -6 -6z"/>
<path d="M4918 4073 c7 -3 16 -2 19 1 4 3 -2 6 -13 5 -11 0 -14 -3 -6 -6z"/>
<path d="M5898 4073 c7 -3 16 -2 19 1 4 3 -2 6 -13 5 -11 0 -14 -3 -6 -6z"/>
<path d="M5848 4063 c7 -3 16 -2 19 1 4 3 -2 6 -13 5 -11 0 -14 -3 -6 -6z"/>
<path d="M5018 4053 c7 -3 16 -2 19 1 4 3 -2 6 -13 5 -11 0 -14 -3 -6 -6z"/>
<path d="M5728 4043 c7 -3 16 -2 19 1 4 3 -2 6 -13 5 -11 0 -14 -3 -6 -6z"/>
<path d="M5658 4033 c7 -3 16 -2 19 1 4 3 -2 6 -13 5 -11 0 -14 -3 -6 -6z"/>
<path d="M5719 3753 c-13 -16 -12 -17 4 -4 9 7 17 15 17 17 0 8 -8 3 -21 -13z"/>
<path d="M5110 3746 c0 -2 8 -10 18 -17 15 -13 16 -12 3 4 -13 16 -21 21 -21
13z"/>
<path d="M5253 2295 c0 -22 2 -30 4 -17 2 12 2 30 0 40 -3 9 -5 -1 -4 -23z"/>
<path d="M5011 2285 c0 -11 4 -27 9 -35 9 -13 10 -13 9 0 0 8 -4 24 -9 35 l-9
20 0 -20z"/>
<path d="M5207 2105 c-9 -19 -15 -35 -12 -35 7 0 37 61 33 66 -3 2 -12 -12
-21 -31z"/>
<path d="M5021 2114 c0 -11 3 -14 6 -6 3 7 2 16 -1 19 -3 4 -6 -2 -5 -13z"/>
<path d="M5873 5675 c0 -27 2 -38 4 -22 2 15 2 37 0 50 -2 12 -4 0 -4 -28z"/>
<path d="M4943 5600 c0 -25 2 -35 4 -22 2 12 2 32 0 45 -2 12 -4 2 -4 -23z"/>
<path d="M5862 5578 c-2 -41 -5 -48 -22 -48 -31 0 -207 -59 -305 -102 -110
-49 -146 -53 -205 -23 -60 30 -218 88 -309 114 -115 32 -76 13 81 -39 79 -25
179 -63 222 -83 l79 -37 129 55 c70 30 172 67 226 82 53 15 101 30 105 33 5 4
7 27 4 51 l-4 44 -1 -47z"/>
<path d="M2594 5433 c-23 -138 -62 -230 -119 -288 -20 -19 -31 -35 -26 -35 5
0 28 21 51 48 l41 47 -6 -60 c-4 -33 -20 -142 -36 -243 -34 -211 -35 -240 -13
-364 10 -61 14 -116 10 -158 -5 -44 -2 -87 8 -128 13 -57 13 -63 -2 -71 -17
-9 -111 -30 -167 -38 -16 -2 -59 -8 -95 -13 -36 -5 -130 -12 -210 -16 -128 -5
-204 -2 -466 21 -47 4 -52 3 -24 -4 56 -15 268 -31 397 -31 154 0 320 16 463
44 124 25 133 23 127 -26 -2 -16 0 -28 4 -28 10 0 27 -105 40 -260 14 -165 6
-516 -16 -685 -9 -66 -32 -192 -51 -280 -84 -383 -85 -393 -87 -625 -1 -118 2
-300 7 -405 10 -227 5 -264 -84 -640 -69 -289 -78 -359 -60 -443 9 -43 9 -65
2 -79 -9 -16 -2 -35 41 -107 29 -47 79 -121 112 -162 39 -50 60 -87 61 -105 2
-33 -12 -39 -21 -10 -3 11 -13 25 -22 33 -12 10 -11 3 5 -28 12 -23 18 -44 15
-48 -10 -10 -35 -7 -28 4 3 6 2 10 -4 10 -6 0 -17 14 -26 30 -9 17 -21 30 -27
30 -6 0 -5 -7 5 -18 26 -29 39 -72 26 -88 -7 -8 -7 -14 -1 -14 5 0 15 7 22 15
7 8 16 15 21 15 19 0 49 41 49 66 0 27 -19 59 -83 136 -21 27 -61 85 -88 130
-39 66 -48 89 -43 111 3 16 1 57 -6 92 -15 79 -8 129 65 435 95 396 107 516
81 775 -13 128 -14 196 -7 340 10 185 17 232 78 490 71 305 102 655 83 933
-12 172 -18 222 -57 422 -18 95 -25 162 -24 225 1 51 -5 133 -15 189 l-18 99
30 175 c21 129 31 167 36 146 60 -252 61 -260 68 -449 7 -178 10 -203 53 -385
80 -338 82 -389 26 -478 -30 -49 -33 -61 -35 -142 -1 -48 -5 -108 -8 -132 -5
-40 -5 -41 5 -13 6 17 14 78 18 136 6 98 9 111 40 160 29 46 33 62 33 114 -1
69 -25 194 -77 410 -33 135 -37 167 -41 320 -3 135 -9 191 -29 275 -61 261
-65 344 -20 490 22 73 39 170 30 170 -2 0 -7 -17 -11 -37z"/>
<path d="M1514 5190 c0 -13 4 -16 10 -10 7 7 7 13 0 20 -6 6 -10 3 -10 -10z"/>
<path d="M1708 5113 c7 -3 16 -2 19 1 4 3 -2 6 -13 5 -11 0 -14 -3 -6 -6z"/>
<path d="M2128 5113 c7 -3 16 -2 19 1 4 3 -2 6 -13 5 -11 0 -14 -3 -6 -6z"/>
<path d="M1658 5103 c6 -2 18 -2 25 0 6 3 1 5 -13 5 -14 0 -19 -2 -12 -5z"/>
<path d="M2173 5103 c9 -2 23 -2 30 0 6 3 -1 5 -18 5 -16 0 -22 -2 -12 -5z"/>
<path d="M1493 5093 c26 -2 68 -2 95 0 26 2 4 3 -48 3 -52 0 -74 -1 -47 -3z"/>
<path d="M2268 5093 c23 -2 61 -2 85 0 23 2 4 4 -43 4 -47 0 -66 -2 -42 -4z"/>
<path d="M5628 4933 c7 -3 16 -2 19 1 4 3 -2 6 -13 5 -11 0 -14 -3 -6 -6z"/>
<path d="M5063 4923 c15 -2 37 -2 50 0 12 2 0 4 -28 4 -27 0 -38 -2 -22 -4z"/>
<path d="M5668 4923 c6 -2 18 -2 25 0 6 3 1 5 -13 5 -14 0 -19 -2 -12 -5z"/>
<path d="M1639 4873 l-34 -38 38 34 c34 33 42 41 34 41 -2 0 -19 -17 -38 -37z"/>
<path d="M2205 4880 c10 -11 20 -20 23 -20 3 0 -3 9 -13 20 -10 11 -20 20 -23
20 -3 0 3 -9 13 -20z"/>
<path d="M1559 4763 c-13 -16 -12 -17 4 -4 9 7 17 15 17 17 0 8 -8 3 -21 -13z"/>
<path d="M2300 4745 c13 -14 26 -25 28 -25 3 0 -5 11 -18 25 -13 14 -26 25
-28 25 -3 0 5 -11 18 -25z"/>
<path d="M5142 4680 c-95 -4 -174 -9 -177 -11 -2 -2 198 -4 445 -4 247 0 441
3 432 6 -29 11 -519 17 -700 9z"/>
<path d="M1913 4354 c-8 -21 13 -42 28 -27 13 13 5 43 -11 43 -6 0 -13 -7 -17
-16z m22 -3 c3 -5 1 -12 -5 -16 -5 -3 -10 1 -10 9 0 18 6 21 15 7z"/>
<path d="M5397 4363 c-4 -3 -7 -15 -7 -25 0 -21 25 -24 33 -4 6 16 -16 40 -26
29z"/>
<path d="M2394 4278 l-29 -33 33 29 c30 28 37 36 29 36 -2 0 -16 -15 -33 -32z"/>
<path d="M1493 4221 c12 -22 23 -38 25 -36 5 5 -26 63 -37 69 -5 4 0 -12 12
-33z"/>
<path d="M2350 4220 c-6 -11 -8 -20 -6 -20 3 0 10 9 16 20 6 11 8 20 6 20 -3
0 -10 -9 -16 -20z"/>
<path d="M2326 4173 c-6 -14 -5 -15 5 -6 7 7 10 15 7 18 -3 3 -9 -2 -12 -12z"/>
<path d="M1368 4083 c7 -3 16 -2 19 1 4 3 -2 6 -13 5 -11 0 -14 -3 -6 -6z"/>
<path d="M1418 4073 c7 -3 16 -2 19 1 4 3 -2 6 -13 5 -11 0 -14 -3 -6 -6z"/>
<path d="M2428 4073 c7 -3 16 -2 19 1 4 3 -2 6 -13 5 -11 0 -14 -3 -6 -6z"/>
<path d="M1528 4053 c6 -2 18 -2 25 0 6 3 1 5 -13 5 -14 0 -19 -2 -12 -5z"/>
<path d="M2318 4053 c7 -3 16 -2 19 1 4 3 -2 6 -13 5 -11 0 -14 -3 -6 -6z"/>
<path d="M1598 4043 c7 -3 16 -2 19 1 4 3 -2 6 -13 5 -11 0 -14 -3 -6 -6z"/>
<path d="M2258 4043 c7 -3 16 -2 19 1 4 3 -2 6 -13 5 -11 0 -14 -3 -6 -6z"/>
<path d="M2141 4025 c1 -19 18 -51 18 -35 0 8 -4 22 -9 30 -5 8 -9 11 -9 5z"/>
<path d="M2160 3961 c0 -6 4 -13 10 -16 6 -3 7 1 4 9 -7 18 -14 21 -14 7z"/>
<path d="M1656 3855 c-3 -9 -6 -22 -5 -28 0 -7 5 -1 10 12 5 13 8 26 5 28 -2
2 -6 -3 -10 -12z"/>
<path d="M2200 3835 c0 -3 6 -21 14 -39 11 -26 11 -37 3 -47 -10 -11 -9 -11 4
-1 17 13 16 45 -2 68 -5 6 -6 14 -2 17 3 4 1 7 -5 7 -7 0 -12 -2 -12 -5z"/>
<path d="M2771 3314 c0 -11 3 -14 6 -6 3 7 2 16 -1 19 -3 4 -6 -2 -5 -13z"/>
<path d="M2372 2335 c-1 -22 -5 -51 -7 -65 l-6 -25 11 25 c6 13 9 42 7 65 l-4
40 -1 -40z"/>
<path d="M5792 2313 c-1 -23 -5 -50 -8 -60 -5 -17 -5 -17 6 0 6 9 9 36 7 60
l-4 42 -1 -42z"/>
<path d="M5561 2254 c0 -11 3 -14 6 -6 3 7 2 16 -1 19 -3 4 -6 -2 -5 -13z"/>
<path d="M2356 2174 c-4 -14 -5 -28 -3 -31 3 -2 8 8 11 23 4 14 5 28 3 31 -3
2 -8 -8 -11 -23z"/>
<path d="M2141 2135 c0 -5 6 -21 14 -35 8 -14 14 -20 14 -15 0 6 -6 21 -14 35
-8 14 -14 21 -14 15z"/>
<path d="M5581 2135 c0 -5 8 -26 19 -45 11 -19 19 -30 19 -25 0 6 -8 26 -19
45 -11 19 -19 31 -19 25z"/>
<path d="M5740 302 c0 -5 7 -15 15 -22 8 -7 15 -19 15 -26 0 -8 4 -14 8 -14 4
0 8 -9 8 -20 0 -11 -5 -20 -10 -20 -5 0 -6 -3 -3 -6 4 -4 13 -1 22 6 11 9 12
17 3 34 -16 30 -58 80 -58 68z"/>
</g>
</svg>
